M48
;Layer_Color=9474304
;FILE_FORMAT=4:4
METRIC,LZ
;TYPE=PLATED
T1F00S00C0.2000
T2F00S00C1.0000
%
T01
X0007366Y0000508
X0009652
X0011938
X001397
X0016002
X0018288
X002032
X0022606
X0024892
X0027178
X00274828Y00021336
X0026162Y0002921
X0023876
X002159
X0019558
X002032Y0004699
X0018288Y0004953
X0016002
X0014224
X0011938
X00102362Y0005334
X00090678Y00047244
X0008636Y0002921
X0010922
X0012954
X0014986
X0017018
X002286Y0004699
X00254
X0028448Y0005334
X0029464Y0003302
X000635Y0002921
X0006477Y00047752
X00078232Y0005969
X00050546
X00044196Y00047244
X0004064Y0002921
X000508Y0000508
X0002794
X0001524Y0001524
X0000508Y0003302
X0001524Y0005334
X0000508Y0007112
X000105Y000882
X0000508Y0010922
X0001524Y0012954
X0000508Y0014732
X000149Y001582
X0000508Y0018542
X0001524Y0020574
X000324Y00209214
X000574Y002141
X000569Y002006
X00048232Y00191046
X000594Y001774
X000486Y001498
X00049Y00121405
X000508Y0009271
X000495Y002302
X00036344Y002417
X00038261Y002641
X0005334Y0025527
X00049Y002841
X000478Y003056
X000473Y003264
X000476Y003563
X000508Y0037846
X000366Y003783
X0002794Y0039596
X000508
X0000508
Y0037846
X0001524Y0036322
X0000508Y003429
X000127Y003313
X0000508Y003048
X000152Y002845
X0000508Y002667
Y0022352
X000153Y002337
X00080998Y00224034
X00094968Y002267
X001162Y002254
X00136Y002288
X001533
X001534Y002115
X00136
X00145006Y00189456
X001551Y001895
X00159512Y0019685
X00165006Y00196088
X001713Y002115
X001714Y002289
X00189Y002288
Y002115
X00197358Y0019685
X002102Y001868
X002032Y00174752
X00200406Y00166116
X001952Y001702
X00191008Y00164846
X001778Y0016383
X00165354Y00162814
X0017272Y0015113
X00155477Y00146
X001432Y001399
X001313Y001494
X0011952Y001365
X001286Y001243
X001296Y001041
X0014478Y0010795
X0017272Y0012065
X0016256Y0013335
X001905Y0014605
X00191008Y00180086
X0022098Y0017
X00229Y0015487
X0022098Y0014097
X00224282Y00107188
X0024638Y0010033
X00249936Y001257
X0025146Y0015113
X00256794Y00172466
X0024884Y00188802
X00249428Y00210312
X00249936Y00221234
X0025654Y0022479
Y0024003
X0023901Y0025086
X0022901Y0025186
X00218948Y00260478
X00220726Y0026543
X0022606Y0028067
X002413Y0028321
X00243Y0026785
X0024638Y0029591
X0025654Y0030099
X0026162Y0028321
X00277368Y00256794
X0029464Y002667
Y003048
Y003429
Y0037846
Y0039596
X0027178
X00272796Y003772
X00249936
X0024892Y0039596
X0022606
X00231902Y00385812
X00227076Y003772
X002258Y00353
X0024866
X0025908Y0033147
X002385Y003312
X002413Y0030861
X00231Y0029787
X002134Y002927
X00206781Y00282695
X00196596Y00288544
X001887Y002906
X001815Y00292
X001799Y002975
X001811Y002839
X0018Y002778
X00185006Y00278036
X001713Y002773
X001729Y002824
X001714Y00264
X001888Y002641
X00189Y002466
X001713
X001533
X00136
X0015Y002641
X001447Y002806
X001366Y002795
X001444Y002923
Y003047
X001367Y003061
X001265
X0011684Y0031877
Y0033401
X0011746Y00352
X00117602Y003663
Y003814
X0011684Y0039596
X00129678Y003959
X001426Y0039596
X00142529Y003869
Y003775
X001438Y003675
X001439Y003574
X00134523Y00355
X001344Y003354
X001431Y00329702
X00142772Y003223
X001433Y003148
X0015648Y003147
X0015654Y0030391
X001644Y00296
X001747Y00309291
X001701Y003218
X001658Y003353
X001565Y003295
X00157371Y003447
X00156Y003574
Y003675
X001571Y003774
Y00387
Y00396
X00170781
X0018288Y0039596
X00182977Y003814
X00183054Y003663
X00183Y00352
X001931Y00345
X0020246Y00352
X00202602Y003663
Y003814
X002032Y0039596
X001708Y003763
X001655Y00355
X001431Y00343752
X001081Y00345
X00098Y00352
X00098054Y003663
X0008509Y00368046
X00097977Y003814
X0009652Y0039596
X0007366
X000834Y00339
X000758Y003134
X000754Y00290979
X000994Y002886
X0009906Y0031623
X001209Y002707
X001061Y002506
X001069Y002075
X001075Y001851
X00114014Y00191
X00129794Y0018288
X00123Y00175689
X001011Y001762
X000768Y001763
X00068044Y001866
X000674Y001927
X00086417Y001866
X00079081Y002068
X000754Y001494
X000627Y001365
X000753Y001218
X0006604Y0010795
Y0008255
X0008128Y0009271
X00105918Y00083312
X00105664Y00104648
X001043Y001222
X000915Y001367
X001043Y00149556
X00117602Y00093726
X00115062Y00066548
X0009779Y0006604
X0014478Y0006477
X0017272Y0007493
X00202717Y000751
X00228117
X00253517
X0029464Y0007112
Y0010922
Y0014732
Y0018542
Y0022352
X0022987Y0020193
X00223012Y0019685
X0022098Y0024003
X0020828Y00238252
X0020574Y0023368
X00204724Y00225478
X002015Y00255478
X0020066Y0030861
X00197496Y0031787
X00197104Y00325882
X0018288Y0033401
X0021844Y0032385
X0022098Y0031115
X00129Y003756
X0019812Y0011811
X0018288Y0009779
T02
X00277Y000412
X00023
Y000666
Y00092
Y001174
Y001428
Y001682
Y001936
Y00219
Y002444
Y002698
Y002952
Y003206
Y00346
X00277
Y003206
Y002952
Y002698
Y002444
Y00219
Y001936
Y001682
Y001428
Y001174
Y00092
Y000666
M30
