G04 Layer_Color=8388736*
%FSLAX44Y44*%
%MOMM*%
G71*
G01*
G75*
%ADD28C,0.3000*%
%ADD30C,0.2540*%
%ADD42R,0.6080X0.7350*%
%ADD43C,0.2560*%
G04:AMPARAMS|DCode=44|XSize=0.72mm|YSize=0.42mm|CornerRadius=0mm|HoleSize=0mm|Usage=FLASHONLY|Rotation=270.000|XOffset=0mm|YOffset=0mm|HoleType=Round|Shape=Octagon|*
%AMOCTAGOND44*
4,1,8,-0.1050,-0.3600,0.1050,-0.3600,0.2100,-0.2550,0.2100,0.2550,0.1050,0.3600,-0.1050,0.3600,-0.2100,0.2550,-0.2100,-0.2550,-0.1050,-0.3600,0.0*
%
%ADD44OCTAGOND44*%

%ADD45R,5.7600X5.7600*%
G04:AMPARAMS|DCode=46|XSize=0.72mm|YSize=0.42mm|CornerRadius=0mm|HoleSize=0mm|Usage=FLASHONLY|Rotation=180.000|XOffset=0mm|YOffset=0mm|HoleType=Round|Shape=Octagon|*
%AMOCTAGOND46*
4,1,8,-0.3600,0.1050,-0.3600,-0.1050,-0.2550,-0.2100,0.2550,-0.2100,0.3600,-0.1050,0.3600,0.1050,0.2550,0.2100,-0.2550,0.2100,-0.3600,0.1050,0.0*
%
%ADD46OCTAGOND46*%

%ADD47R,1.3000X5.0000*%
%ADD48R,0.6000X2.6000*%
%ADD49R,0.7350X0.6080*%
%ADD50R,1.6240X1.3700*%
%ADD51R,1.1000X0.9000*%
%ADD52R,0.9500X0.8500*%
%ADD53R,1.3500X1.1000*%
%ADD54R,0.4000X0.7500*%
%ADD55R,0.2000X0.2000*%
%ADD56C,1.9000*%
%ADD57R,1.9000X1.9000*%
G36*
X251460Y192874D02*
X237490D01*
Y203874D01*
X251460D01*
Y192874D01*
D02*
G37*
G36*
X72798Y198610D02*
X61798D01*
Y212580D01*
X72798D01*
Y198610D01*
D02*
G37*
D28*
X300000Y-0D02*
Y400000D01*
X0D02*
X300000D01*
X0Y-0D02*
Y400000D01*
Y-0D02*
X300000D01*
D30*
X120000Y-234765D02*
X130157D01*
X125078D01*
Y-250000D01*
X142853Y-234765D02*
X137774D01*
X135235Y-237304D01*
Y-247461D01*
X137774Y-250000D01*
X142853D01*
X145392Y-247461D01*
Y-237304D01*
X142853Y-234765D01*
X150470Y-250000D02*
Y-234765D01*
X158088D01*
X160627Y-237304D01*
Y-242383D01*
X158088Y-244922D01*
X150470D01*
X191097Y-237304D02*
X188558Y-234765D01*
X183479D01*
X180940Y-237304D01*
Y-239843D01*
X183479Y-242383D01*
X188558D01*
X191097Y-244922D01*
Y-247461D01*
X188558Y-250000D01*
X183479D01*
X180940Y-247461D01*
X203793Y-234765D02*
X198715D01*
X196175Y-237304D01*
Y-247461D01*
X198715Y-250000D01*
X203793D01*
X206332Y-247461D01*
Y-237304D01*
X203793Y-234765D01*
X211410D02*
Y-250000D01*
X221567D01*
X226646Y-234765D02*
Y-250000D01*
X234263D01*
X236802Y-247461D01*
Y-237304D01*
X234263Y-234765D01*
X226646D01*
X252037D02*
X241881D01*
Y-250000D01*
X252037D01*
X241881Y-242383D02*
X246959D01*
X257116Y-250000D02*
Y-234765D01*
X264733D01*
X267272Y-237304D01*
Y-242383D01*
X264733Y-244922D01*
X257116D01*
X262194D02*
X267272Y-250000D01*
X0Y-174765D02*
Y-190000D01*
X7617D01*
X10157Y-187461D01*
Y-184922D01*
X7617Y-182383D01*
X0D01*
X7617D01*
X10157Y-179843D01*
Y-177304D01*
X7617Y-174765D01*
X0D01*
X22853D02*
X17774D01*
X15235Y-177304D01*
Y-187461D01*
X17774Y-190000D01*
X22853D01*
X25392Y-187461D01*
Y-177304D01*
X22853Y-174765D01*
X30470Y-190000D02*
Y-179843D01*
X35549Y-174765D01*
X40627Y-179843D01*
Y-190000D01*
Y-182383D01*
X30470D01*
X45705Y-190000D02*
Y-174765D01*
X53323D01*
X55862Y-177304D01*
Y-182383D01*
X53323Y-184922D01*
X45705D01*
X50784D02*
X55862Y-190000D01*
X60940Y-174765D02*
Y-190000D01*
X68558D01*
X71097Y-187461D01*
Y-177304D01*
X68558Y-174765D01*
X60940D01*
X91410Y-179843D02*
X93950D01*
Y-182383D01*
X91410D01*
Y-179843D01*
Y-187461D02*
X93950D01*
Y-190000D01*
X91410D01*
Y-187461D01*
X129498Y-177304D02*
X126959Y-174765D01*
X121881D01*
X119341Y-177304D01*
Y-179843D01*
X121881Y-182383D01*
X126959D01*
X129498Y-184922D01*
Y-187461D01*
X126959Y-190000D01*
X121881D01*
X119341Y-187461D01*
X134577Y-174765D02*
X144733D01*
X139655D01*
Y-190000D01*
X149811D02*
Y-174765D01*
X154890Y-179843D01*
X159968Y-174765D01*
Y-190000D01*
X165047Y-177304D02*
X167586Y-174765D01*
X172664D01*
X175203Y-177304D01*
Y-179843D01*
X172664Y-182383D01*
X170125D01*
X172664D01*
X175203Y-184922D01*
Y-187461D01*
X172664Y-190000D01*
X167586D01*
X165047Y-187461D01*
X190438Y-190000D02*
X180282D01*
X190438Y-179843D01*
Y-177304D01*
X187899Y-174765D01*
X182821D01*
X180282Y-177304D01*
X195517Y-174765D02*
Y-190000D01*
X200595Y-184922D01*
X205674Y-190000D01*
Y-174765D01*
X210752D02*
Y-190000D01*
X218369D01*
X220909Y-187461D01*
Y-184922D01*
X218369Y-182383D01*
X210752D01*
X218369D01*
X220909Y-179843D01*
Y-177304D01*
X218369Y-174765D01*
X210752D01*
X236144D02*
X225987D01*
Y-182383D01*
X231065Y-179843D01*
X233604D01*
X236144Y-182383D01*
Y-187461D01*
X233604Y-190000D01*
X228526D01*
X225987Y-187461D01*
X251379Y-174765D02*
X241222D01*
Y-182383D01*
X246300Y-179843D01*
X248839D01*
X251379Y-182383D01*
Y-187461D01*
X248839Y-190000D01*
X243761D01*
X241222Y-187461D01*
X256457Y-192539D02*
X266614D01*
X271692Y-174765D02*
Y-190000D01*
X279310D01*
X281849Y-187461D01*
Y-177304D01*
X279310Y-174765D01*
X271692D01*
X286927D02*
Y-190000D01*
X294545D01*
X297084Y-187461D01*
Y-184922D01*
X294545Y-182383D01*
X286927D01*
X294545D01*
X297084Y-179843D01*
Y-177304D01*
X294545Y-174765D01*
X286927D01*
X302162Y-192539D02*
X312319D01*
X327554Y-187461D02*
Y-177304D01*
X325015Y-174765D01*
X319937D01*
X317397Y-177304D01*
Y-187461D01*
X319937Y-190000D01*
X325015D01*
X322476Y-184922D02*
X327554Y-190000D01*
X325015D02*
X327554Y-187461D01*
X342789Y-174765D02*
X332632D01*
Y-182383D01*
X337711D01*
X332632D01*
Y-190000D01*
X347868D02*
Y-174765D01*
X358024Y-190000D01*
Y-174765D01*
X370720Y-190000D02*
Y-174765D01*
X363103Y-182383D01*
X373259D01*
X378338Y-177304D02*
X380877Y-174765D01*
X385955D01*
X388494Y-177304D01*
Y-179843D01*
X385955Y-182383D01*
X388494Y-184922D01*
Y-187461D01*
X385955Y-190000D01*
X380877D01*
X378338Y-187461D01*
Y-184922D01*
X380877Y-182383D01*
X378338Y-179843D01*
Y-177304D01*
X380877Y-182383D02*
X385955D01*
X393573Y-192539D02*
X403729D01*
X408808Y-190000D02*
Y-174765D01*
X416425D01*
X418965Y-177304D01*
Y-182383D01*
X416425Y-184922D01*
X408808D01*
X0Y-220000D02*
Y-204765D01*
X7617D01*
X10157Y-207304D01*
Y-212383D01*
X7617Y-214922D01*
X0D01*
X5078D02*
X10157Y-220000D01*
X25392Y-204765D02*
X15235D01*
Y-220000D01*
X25392D01*
X15235Y-212383D02*
X20313D01*
X30470Y-204765D02*
Y-214922D01*
X35549Y-220000D01*
X40627Y-214922D01*
Y-204765D01*
X91410Y-209843D02*
X93950D01*
Y-212383D01*
X91410D01*
Y-209843D01*
Y-217461D02*
X93950D01*
Y-220000D01*
X91410D01*
Y-217461D01*
X119341Y-220000D02*
Y-209843D01*
X124420Y-204765D01*
X129498Y-209843D01*
Y-220000D01*
Y-212383D01*
X119341D01*
X10157Y-234765D02*
X0D01*
Y-242383D01*
X5078D01*
X0D01*
Y-250000D01*
X15235Y-234765D02*
X20313D01*
X17774D01*
Y-250000D01*
X15235D01*
X20313D01*
X27931Y-234765D02*
Y-250000D01*
X38088D01*
X43166D02*
Y-234765D01*
X48244Y-239843D01*
X53323Y-234765D01*
Y-250000D01*
X88871Y-239843D02*
X91410D01*
Y-242383D01*
X88871D01*
Y-239843D01*
Y-247461D02*
X91410D01*
Y-250000D01*
X88871D01*
Y-247461D01*
X0Y-264765D02*
Y-280000D01*
X7617D01*
X10157Y-277461D01*
Y-267304D01*
X7617Y-264765D01*
X0D01*
X15235Y-280000D02*
Y-264765D01*
X22853D01*
X25392Y-267304D01*
Y-272383D01*
X22853Y-274922D01*
X15235D01*
X20313D02*
X25392Y-280000D01*
X30470D02*
Y-269843D01*
X35549Y-264765D01*
X40627Y-269843D01*
Y-280000D01*
Y-272383D01*
X30470D01*
X45705Y-264765D02*
Y-280000D01*
X50784Y-274922D01*
X55862Y-280000D01*
Y-264765D01*
X60940Y-280000D02*
Y-264765D01*
X71097Y-280000D01*
Y-264765D01*
X91410Y-269843D02*
X93950D01*
Y-272383D01*
X91410D01*
Y-269843D01*
Y-277461D02*
X93950D01*
Y-280000D01*
X91410D01*
Y-277461D01*
X129498Y-267304D02*
X126959Y-264765D01*
X121881D01*
X119341Y-267304D01*
Y-277461D01*
X121881Y-280000D01*
X126959D01*
X129498Y-277461D01*
X144733Y-264765D02*
X134577D01*
Y-280000D01*
X144733D01*
X134577Y-272383D02*
X139655D01*
X149811Y-280000D02*
Y-264765D01*
X159968Y-280000D01*
Y-264765D01*
X165047D02*
X175203D01*
X170125D01*
Y-280000D01*
X180282Y-264765D02*
Y-277461D01*
X182821Y-280000D01*
X187899D01*
X190438Y-277461D01*
Y-264765D01*
X195517Y-280000D02*
Y-264765D01*
X200595Y-269843D01*
X205674Y-264765D01*
Y-280000D01*
X210752Y-272383D02*
X220909D01*
X225987Y-280000D02*
Y-269843D01*
X231065Y-264765D01*
X236144Y-269843D01*
Y-280000D01*
Y-272383D01*
X225987D01*
X241222Y-264765D02*
Y-280000D01*
X248839D01*
X251379Y-277461D01*
Y-267304D01*
X248839Y-264765D01*
X241222D01*
X266614D02*
X256457D01*
Y-280000D01*
X266614D01*
X256457Y-272383D02*
X261535D01*
X271692Y-280000D02*
Y-264765D01*
X281849Y-280000D01*
Y-264765D01*
X297084D02*
X286927D01*
Y-280000D01*
X297084D01*
X286927Y-272383D02*
X292006D01*
X309780Y-264765D02*
X304701D01*
X302162Y-267304D01*
Y-277461D01*
X304701Y-280000D01*
X309780D01*
X312319Y-277461D01*
Y-267304D01*
X309780Y-264765D01*
X0Y-294765D02*
Y-310000D01*
X7617D01*
X10157Y-307461D01*
Y-297304D01*
X7617Y-294765D01*
X0D01*
X15235Y-310000D02*
Y-299843D01*
X20313Y-294765D01*
X25392Y-299843D01*
Y-310000D01*
Y-302383D01*
X15235D01*
X30470Y-294765D02*
X40627D01*
X35549D01*
Y-310000D01*
X55862Y-294765D02*
X45705D01*
Y-310000D01*
X55862D01*
X45705Y-302383D02*
X50784D01*
X91410Y-299843D02*
X93950D01*
Y-302383D01*
X91410D01*
Y-299843D01*
Y-307461D02*
X93950D01*
Y-310000D01*
X91410D01*
Y-307461D01*
X129498Y-310000D02*
X119341D01*
X129498Y-299843D01*
Y-297304D01*
X126959Y-294765D01*
X121881D01*
X119341Y-297304D01*
X134577D02*
X137116Y-294765D01*
X142194D01*
X144733Y-297304D01*
Y-307461D01*
X142194Y-310000D01*
X137116D01*
X134577Y-307461D01*
Y-297304D01*
X149811Y-310000D02*
X154890D01*
X152351D01*
Y-294765D01*
X149811Y-297304D01*
X162507Y-294765D02*
X172664D01*
Y-297304D01*
X162507Y-307461D01*
Y-310000D01*
X177743D02*
X187899Y-299843D01*
X200595Y-310000D02*
Y-294765D01*
X192978Y-302383D01*
X203134D01*
X218369Y-294765D02*
X208213D01*
Y-302383D01*
X213291Y-299843D01*
X215830D01*
X218369Y-302383D01*
Y-307461D01*
X215830Y-310000D01*
X210752D01*
X208213Y-307461D01*
D42*
X112240Y203710D02*
D03*
Y215690D02*
D03*
X229870Y182224D02*
D03*
Y194204D02*
D03*
X248920Y232516D02*
D03*
Y244496D02*
D03*
X115729Y235520D02*
D03*
Y247500D02*
D03*
X123100Y194290D02*
D03*
Y182310D02*
D03*
X174700Y290010D02*
D03*
Y301990D02*
D03*
X228092Y232262D02*
D03*
Y244242D02*
D03*
X136600Y298690D02*
D03*
Y286710D02*
D03*
X126500Y298790D02*
D03*
Y286810D02*
D03*
X100900Y215790D02*
D03*
Y203810D02*
D03*
D43*
X238760Y198374D02*
D03*
X248840D02*
D03*
X67298Y209960D02*
D03*
Y199880D02*
D03*
D44*
X140006Y203882D02*
D03*
X135006D02*
D03*
X145006D02*
D03*
X150006D02*
D03*
X155006D02*
D03*
X160006D02*
D03*
X165006D02*
D03*
X170006D02*
D03*
X180006D02*
D03*
X185006D02*
D03*
X190006D02*
D03*
X135006Y271858D02*
D03*
X140006D02*
D03*
X145006D02*
D03*
X150006D02*
D03*
X155006D02*
D03*
X160006D02*
D03*
X165006D02*
D03*
X170006D02*
D03*
X175006D02*
D03*
X180006D02*
D03*
X185006D02*
D03*
X190006D02*
D03*
X175006Y203882D02*
D03*
D45*
X162490Y237870D02*
D03*
D46*
X196474Y265478D02*
D03*
Y260478D02*
D03*
Y255478D02*
D03*
Y250478D02*
D03*
Y245478D02*
D03*
Y240478D02*
D03*
Y235478D02*
D03*
Y230478D02*
D03*
Y225478D02*
D03*
Y220478D02*
D03*
Y215478D02*
D03*
Y210407D02*
D03*
X128506Y265478D02*
D03*
Y260478D02*
D03*
Y255478D02*
D03*
Y250478D02*
D03*
Y245478D02*
D03*
Y240478D02*
D03*
Y235478D02*
D03*
Y230478D02*
D03*
Y225478D02*
D03*
Y220478D02*
D03*
Y215478D02*
D03*
Y210478D02*
D03*
D47*
X192500Y373380D02*
D03*
X107500D02*
D03*
D48*
X150000Y384810D02*
D03*
D49*
X190910Y186600D02*
D03*
X202890D02*
D03*
X231021Y259860D02*
D03*
X243000D02*
D03*
X161946Y182118D02*
D03*
X149966D02*
D03*
X229362Y221234D02*
D03*
X241341D02*
D03*
X229321Y210312D02*
D03*
X241300D02*
D03*
X216450Y196850D02*
D03*
X204470D02*
D03*
D50*
X90800Y250600D02*
D03*
X67940D02*
D03*
D51*
X231010Y270843D02*
D03*
Y288877D02*
D03*
D52*
X99394Y271050D02*
D03*
X112894D02*
D03*
Y281550D02*
D03*
X99394D02*
D03*
D53*
X214630Y224804D02*
D03*
Y209804D02*
D03*
D54*
X239014Y229724D02*
D03*
Y243224D02*
D03*
D55*
X155080Y292700D02*
D03*
Y286830D02*
D03*
Y298570D02*
D03*
X150080Y292700D02*
D03*
Y286830D02*
D03*
Y298570D02*
D03*
D56*
X277000Y244400D02*
D03*
Y320600D02*
D03*
Y295200D02*
D03*
Y269800D02*
D03*
Y219000D02*
D03*
Y193600D02*
D03*
Y168200D02*
D03*
Y142800D02*
D03*
Y117400D02*
D03*
Y92000D02*
D03*
Y66600D02*
D03*
Y41200D02*
D03*
X23000Y244400D02*
D03*
Y320600D02*
D03*
Y295200D02*
D03*
Y269800D02*
D03*
Y219000D02*
D03*
Y193600D02*
D03*
Y168200D02*
D03*
Y142800D02*
D03*
Y117400D02*
D03*
Y92000D02*
D03*
Y66600D02*
D03*
Y41200D02*
D03*
D57*
X277000Y346000D02*
D03*
X23000D02*
D03*
M02*
