G04 Layer_Physical_Order=1*
G04 Layer_Color=255*
%FSLAX44Y44*%
%MOMM*%
G71*
G01*
G75*
%ADD10R,0.5080X0.6350*%
%ADD11C,0.2540*%
G04:AMPARAMS|DCode=12|XSize=0.6mm|YSize=0.3mm|CornerRadius=0mm|HoleSize=0mm|Usage=FLASHONLY|Rotation=270.000|XOffset=0mm|YOffset=0mm|HoleType=Round|Shape=Octagon|*
%AMOCTAGOND12*
4,1,8,-0.0750,-0.3000,0.0750,-0.3000,0.1500,-0.2250,0.1500,0.2250,0.0750,0.3000,-0.0750,0.3000,-0.1500,0.2250,-0.1500,-0.2250,-0.0750,-0.3000,0.0*
%
%ADD12OCTAGOND12*%

%ADD13R,5.6000X5.6000*%
G04:AMPARAMS|DCode=14|XSize=0.6mm|YSize=0.3mm|CornerRadius=0mm|HoleSize=0mm|Usage=FLASHONLY|Rotation=180.000|XOffset=0mm|YOffset=0mm|HoleType=Round|Shape=Octagon|*
%AMOCTAGOND14*
4,1,8,-0.3000,0.0750,-0.3000,-0.0750,-0.2250,-0.1500,0.2250,-0.1500,0.3000,-0.0750,0.3000,0.0750,0.2250,0.1500,-0.2250,0.1500,-0.3000,0.0750,0.0*
%
%ADD14OCTAGOND14*%

%ADD15R,1.2000X4.9000*%
%ADD16R,0.5000X2.5000*%
%ADD17R,0.6350X0.5080*%
%ADD18R,1.5240X1.2700*%
%ADD19R,1.0000X0.8000*%
%ADD20R,0.8500X0.7500*%
%ADD21R,1.2500X1.0000*%
%ADD22R,0.3000X0.6500*%
%ADD23R,0.3000X0.3000*%
%ADD24C,0.2000*%
%ADD25C,0.4500*%
%ADD26C,0.1000*%
%ADD27C,0.4000*%
%ADD28C,0.3000*%
%ADD29C,0.2500*%
%ADD30C,0.2540*%
%ADD31C,0.1020*%
%ADD32C,1.8000*%
%ADD33R,1.8000X1.8000*%
%ADD34C,0.4000*%
G36*
X297961Y2039D02*
X2039D01*
Y397961D01*
X146000D01*
Y370810D01*
X146853D01*
Y301300D01*
X146881Y300875D01*
X146964Y300457D01*
X147080Y300115D01*
Y295570D01*
X153080D01*
Y299974D01*
X153119Y300054D01*
X153256Y300457D01*
X153339Y300875D01*
X153367Y301300D01*
Y370810D01*
X154000D01*
Y397961D01*
X297961D01*
Y2039D01*
D02*
G37*
%LPC*%
G36*
X277000Y204110D02*
X276084Y204070D01*
X275175Y203950D01*
X274280Y203752D01*
X273405Y203476D01*
X272558Y203125D01*
X271745Y202702D01*
X270972Y202209D01*
X270244Y201651D01*
X269568Y201032D01*
X268949Y200356D01*
X268391Y199628D01*
X267898Y198855D01*
X267475Y198042D01*
X267124Y197195D01*
X266848Y196320D01*
X266650Y195425D01*
X266530Y194516D01*
X266490Y193600D01*
X266530Y192684D01*
X266650Y191775D01*
X266848Y190880D01*
X267124Y190005D01*
X267475Y189158D01*
X267898Y188345D01*
X268391Y187572D01*
X268949Y186844D01*
X269568Y186168D01*
X270244Y185549D01*
X270972Y184991D01*
X271745Y184498D01*
X272558Y184075D01*
X273405Y183724D01*
X274280Y183448D01*
X275175Y183250D01*
X276084Y183130D01*
X277000Y183090D01*
X277916Y183130D01*
X278825Y183250D01*
X279720Y183448D01*
X280595Y183724D01*
X281442Y184075D01*
X282255Y184498D01*
X283028Y184991D01*
X283756Y185549D01*
X284432Y186168D01*
X285051Y186844D01*
X285609Y187572D01*
X286102Y188345D01*
X286525Y189158D01*
X286876Y190005D01*
X287152Y190880D01*
X287350Y191775D01*
X287470Y192684D01*
X287510Y193600D01*
X287470Y194516D01*
X287350Y195425D01*
X287152Y196320D01*
X286876Y197195D01*
X286525Y198042D01*
X286102Y198855D01*
X285609Y199628D01*
X285051Y200356D01*
X284432Y201032D01*
X283756Y201651D01*
X283028Y202209D01*
X282255Y202702D01*
X281442Y203125D01*
X280595Y203476D01*
X279720Y203752D01*
X278825Y203950D01*
X277916Y204070D01*
X277000Y204110D01*
D02*
G37*
G36*
X23000D02*
X22084Y204070D01*
X21175Y203950D01*
X20280Y203752D01*
X19405Y203476D01*
X18558Y203125D01*
X17745Y202702D01*
X16972Y202209D01*
X16244Y201651D01*
X15568Y201032D01*
X14949Y200356D01*
X14391Y199628D01*
X13898Y198855D01*
X13475Y198042D01*
X13124Y197195D01*
X12848Y196320D01*
X12650Y195425D01*
X12530Y194516D01*
X12490Y193600D01*
X12530Y192684D01*
X12650Y191775D01*
X12848Y190880D01*
X13124Y190005D01*
X13475Y189158D01*
X13898Y188345D01*
X14391Y187572D01*
X14949Y186844D01*
X15568Y186168D01*
X16244Y185549D01*
X16972Y184991D01*
X17745Y184498D01*
X18558Y184075D01*
X19405Y183724D01*
X20280Y183448D01*
X21175Y183250D01*
X22084Y183130D01*
X23000Y183090D01*
X23916Y183130D01*
X24825Y183250D01*
X25720Y183448D01*
X26595Y183724D01*
X27442Y184075D01*
X28255Y184498D01*
X29028Y184991D01*
X29756Y185549D01*
X30432Y186168D01*
X31051Y186844D01*
X31609Y187572D01*
X32102Y188345D01*
X32525Y189158D01*
X32876Y190005D01*
X33152Y190880D01*
X33350Y191775D01*
X33470Y192684D01*
X33510Y193600D01*
X33470Y194516D01*
X33350Y195425D01*
X33152Y196320D01*
X32876Y197195D01*
X32525Y198042D01*
X32102Y198855D01*
X31609Y199628D01*
X31051Y200356D01*
X30432Y201032D01*
X29756Y201651D01*
X29028Y202209D01*
X28255Y202702D01*
X27442Y203125D01*
X26595Y203476D01*
X25720Y203752D01*
X24825Y203950D01*
X23916Y204070D01*
X23000Y204110D01*
D02*
G37*
G36*
X277000Y178710D02*
X276084Y178670D01*
X275175Y178550D01*
X274280Y178352D01*
X273405Y178076D01*
X272558Y177725D01*
X271745Y177302D01*
X270972Y176809D01*
X270244Y176251D01*
X269568Y175632D01*
X268949Y174956D01*
X268391Y174228D01*
X267898Y173455D01*
X267475Y172642D01*
X267124Y171795D01*
X266848Y170920D01*
X266650Y170025D01*
X266530Y169116D01*
X266490Y168200D01*
X266530Y167284D01*
X266650Y166375D01*
X266848Y165480D01*
X267124Y164605D01*
X267475Y163758D01*
X267898Y162945D01*
X268391Y162172D01*
X268949Y161444D01*
X269568Y160768D01*
X270244Y160149D01*
X270972Y159591D01*
X271745Y159098D01*
X272558Y158675D01*
X273405Y158324D01*
X274280Y158048D01*
X275175Y157850D01*
X276084Y157730D01*
X277000Y157690D01*
X277916Y157730D01*
X278825Y157850D01*
X279720Y158048D01*
X280595Y158324D01*
X281442Y158675D01*
X282255Y159098D01*
X283028Y159591D01*
X283756Y160149D01*
X284432Y160768D01*
X285051Y161444D01*
X285609Y162172D01*
X286102Y162945D01*
X286525Y163758D01*
X286876Y164605D01*
X287152Y165480D01*
X287350Y166375D01*
X287470Y167284D01*
X287510Y168200D01*
X287470Y169116D01*
X287350Y170025D01*
X287152Y170920D01*
X286876Y171795D01*
X286525Y172642D01*
X286102Y173455D01*
X285609Y174228D01*
X285051Y174956D01*
X284432Y175632D01*
X283756Y176251D01*
X283028Y176809D01*
X282255Y177302D01*
X281442Y177725D01*
X280595Y178076D01*
X279720Y178352D01*
X278825Y178550D01*
X277916Y178670D01*
X277000Y178710D01*
D02*
G37*
G36*
X191506Y208382D02*
X188506D01*
X187506Y207382D01*
X186506Y208382D01*
X183506D01*
X182506Y207382D01*
X181506Y208382D01*
X178506D01*
X177506Y207382D01*
X176506Y208382D01*
X173506D01*
X172506Y207382D01*
X171506Y208382D01*
X168506D01*
X167506Y207382D01*
X166506Y208382D01*
X163506D01*
X162506Y207382D01*
X161506Y208382D01*
X158506D01*
X157506Y207382D01*
X156506Y208382D01*
X153506D01*
X152506Y207382D01*
X151506Y208382D01*
X148506D01*
X147506Y207382D01*
X146506Y208382D01*
X143506D01*
X142506Y207382D01*
X141506Y208382D01*
X138506D01*
X137506Y207382D01*
X136506Y208382D01*
X133506D01*
X132006Y206882D01*
Y200882D01*
X133506Y199382D01*
X133733D01*
X133753Y199345D01*
X133940Y199116D01*
X134993Y198064D01*
Y98994D01*
X92306Y56307D01*
X35424D01*
X35031Y56701D01*
X35031Y56703D01*
X35029Y56742D01*
X35033Y56781D01*
X35023Y56889D01*
X35018Y56998D01*
X33402Y68085D01*
X33393Y68123D01*
X33389Y68161D01*
X33382Y68182D01*
X33350Y68425D01*
X33152Y69320D01*
X32876Y70195D01*
X32525Y71042D01*
X32102Y71855D01*
X31609Y72628D01*
X31051Y73356D01*
X30432Y74032D01*
X29756Y74651D01*
X29028Y75209D01*
X28255Y75702D01*
X27442Y76125D01*
X26595Y76476D01*
X25720Y76752D01*
X24825Y76950D01*
X23916Y77070D01*
X23000Y77110D01*
X22084Y77070D01*
X21175Y76950D01*
X20280Y76752D01*
X19405Y76476D01*
X18558Y76125D01*
X17745Y75702D01*
X16972Y75209D01*
X16244Y74651D01*
X15568Y74032D01*
X14949Y73356D01*
X14391Y72628D01*
X13898Y71855D01*
X13475Y71042D01*
X13124Y70195D01*
X12848Y69320D01*
X12650Y68425D01*
X12530Y67516D01*
X12490Y66600D01*
X12530Y65684D01*
X12650Y64775D01*
X12848Y63880D01*
X13124Y63005D01*
X13475Y62158D01*
X13898Y61345D01*
X14391Y60572D01*
X14949Y59844D01*
X15568Y59168D01*
X16244Y58549D01*
X16972Y57991D01*
X17745Y57498D01*
X18558Y57075D01*
X19405Y56724D01*
X20280Y56448D01*
X21175Y56250D01*
X21418Y56218D01*
X21439Y56211D01*
X21479Y56207D01*
X21519Y56198D01*
X29805Y55009D01*
X32436Y54614D01*
X32517Y54597D01*
X32521Y54597D01*
X32525Y54596D01*
X32663Y54582D01*
X32811Y54567D01*
X32815Y54567D01*
X32819Y54567D01*
X32894Y54574D01*
X33537Y53931D01*
X33534Y53866D01*
X32899Y53231D01*
X32897Y53231D01*
X32858Y53229D01*
X32819Y53233D01*
X32711Y53223D01*
X32602Y53218D01*
X21515Y51602D01*
X21477Y51592D01*
X21439Y51589D01*
X21418Y51582D01*
X21175Y51550D01*
X20280Y51352D01*
X19405Y51076D01*
X18558Y50725D01*
X17745Y50302D01*
X16972Y49809D01*
X16244Y49251D01*
X15568Y48632D01*
X14949Y47956D01*
X14391Y47228D01*
X13898Y46455D01*
X13475Y45642D01*
X13124Y44795D01*
X12848Y43920D01*
X12650Y43025D01*
X12530Y42116D01*
X12490Y41200D01*
X12530Y40284D01*
X12650Y39375D01*
X12848Y38480D01*
X13124Y37605D01*
X13475Y36758D01*
X13898Y35945D01*
X14391Y35172D01*
X14949Y34444D01*
X15568Y33768D01*
X16244Y33149D01*
X16972Y32591D01*
X17745Y32098D01*
X18558Y31675D01*
X19405Y31324D01*
X20280Y31048D01*
X21175Y30850D01*
X22084Y30730D01*
X23000Y30690D01*
X23916Y30730D01*
X24825Y30850D01*
X25720Y31048D01*
X26595Y31324D01*
X27442Y31675D01*
X28255Y32098D01*
X29028Y32591D01*
X29756Y33149D01*
X30432Y33768D01*
X31051Y34444D01*
X31609Y35172D01*
X32102Y35945D01*
X32525Y36758D01*
X32876Y37605D01*
X33152Y38480D01*
X33350Y39375D01*
X33382Y39618D01*
X33389Y39639D01*
X33393Y39679D01*
X33402Y39719D01*
X34591Y48005D01*
X34986Y50636D01*
X35003Y50717D01*
X35003Y50721D01*
X35004Y50725D01*
X35018Y50863D01*
X35033Y51011D01*
X35131Y51084D01*
X35444Y51293D01*
X93758D01*
X94052Y51322D01*
X94335Y51407D01*
X94596Y51547D01*
X94824Y51734D01*
X139566Y96476D01*
X139753Y96704D01*
X139893Y96965D01*
X139978Y97247D01*
X140007Y97542D01*
Y198052D01*
X141072Y199116D01*
X141259Y199345D01*
X141279Y199382D01*
X141506D01*
X142506Y200382D01*
X142996Y199892D01*
Y191685D01*
X142878Y191584D01*
X142571Y191225D01*
X142325Y190822D01*
X142144Y190386D01*
X142034Y189927D01*
X141997Y189456D01*
X142034Y188985D01*
X142144Y188526D01*
X142325Y188090D01*
X142571Y187687D01*
X142878Y187328D01*
X143237Y187021D01*
X143640Y186775D01*
X144076Y186594D01*
X144535Y186484D01*
X144914Y186454D01*
X145079Y186325D01*
X145291Y185968D01*
Y178078D01*
X146957D01*
Y90134D01*
X146994Y89663D01*
X147104Y89204D01*
X147285Y88767D01*
X147532Y88365D01*
X147838Y88006D01*
X196772Y39072D01*
X197131Y38765D01*
X197534Y38519D01*
X197970Y38338D01*
X198429Y38228D01*
X198900Y38191D01*
X261713D01*
X261759Y38134D01*
X261802Y38099D01*
X261840Y38059D01*
X261916Y38005D01*
X261988Y37947D01*
X262036Y37921D01*
X262082Y37889D01*
X262167Y37851D01*
X262248Y37808D01*
X262301Y37791D01*
X262352Y37769D01*
X262442Y37749D01*
X262531Y37722D01*
X262586Y37716D01*
X262640Y37704D01*
X262936Y37668D01*
X263261Y37571D01*
X263763Y37361D01*
X264362Y37061D01*
X269399Y33754D01*
X270699Y32792D01*
X270730Y32773D01*
X270758Y32750D01*
X270777Y32740D01*
X270972Y32591D01*
X271745Y32098D01*
X272558Y31675D01*
X273405Y31324D01*
X274280Y31048D01*
X275175Y30850D01*
X276084Y30730D01*
X277000Y30690D01*
X277916Y30730D01*
X278825Y30850D01*
X279720Y31048D01*
X280595Y31324D01*
X281442Y31675D01*
X282255Y32098D01*
X283028Y32591D01*
X283756Y33149D01*
X284432Y33768D01*
X285051Y34444D01*
X285609Y35172D01*
X286102Y35945D01*
X286525Y36758D01*
X286876Y37605D01*
X287152Y38480D01*
X287350Y39375D01*
X287470Y40284D01*
X287510Y41200D01*
X287470Y42116D01*
X287350Y43025D01*
X287152Y43920D01*
X286876Y44795D01*
X286525Y45642D01*
X286102Y46455D01*
X285609Y47228D01*
X285051Y47956D01*
X284432Y48632D01*
X283756Y49251D01*
X283028Y49809D01*
X282255Y50302D01*
X281442Y50725D01*
X280595Y51076D01*
X279720Y51352D01*
X278825Y51550D01*
X277916Y51670D01*
X277000Y51710D01*
X276084Y51670D01*
X275175Y51550D01*
X274280Y51352D01*
X273405Y51076D01*
X272558Y50725D01*
X271745Y50302D01*
X270972Y49809D01*
X270777Y49660D01*
X270758Y49650D01*
X270734Y49630D01*
X270707Y49614D01*
X268165Y47760D01*
X266065Y46345D01*
X264394Y45355D01*
X263763Y45039D01*
X263261Y44830D01*
X262936Y44732D01*
X262640Y44696D01*
X262586Y44684D01*
X262531Y44678D01*
X262442Y44651D01*
X262352Y44631D01*
X262301Y44609D01*
X262248Y44592D01*
X262167Y44549D01*
X262082Y44511D01*
X262037Y44479D01*
X261988Y44453D01*
X261916Y44394D01*
X261840Y44341D01*
X261802Y44301D01*
X261759Y44266D01*
X261713Y44209D01*
X200147D01*
X152976Y91380D01*
Y178078D01*
X154641D01*
Y186025D01*
X155000Y186499D01*
X155100Y186491D01*
X155571Y186528D01*
X156030Y186638D01*
X156466Y186819D01*
X156869Y187066D01*
X157228Y187372D01*
X157535Y187731D01*
X157781Y188134D01*
X157962Y188570D01*
X158072Y189029D01*
X158109Y189500D01*
X158072Y189971D01*
X158055Y190042D01*
X158508Y190296D01*
X160332Y188472D01*
X160691Y188165D01*
X161094Y187919D01*
X161530Y187738D01*
X161989Y187628D01*
X162460Y187591D01*
X169854D01*
X172091Y185354D01*
Y176200D01*
X172128Y175729D01*
X172238Y175270D01*
X172419Y174834D01*
X172666Y174431D01*
X172972Y174072D01*
X184326Y162718D01*
X184685Y162411D01*
X185088Y162165D01*
X185524Y161984D01*
X185983Y161874D01*
X186454Y161837D01*
X191008D01*
X191479Y161874D01*
X191938Y161984D01*
X192374Y162165D01*
X192777Y162411D01*
X193136Y162718D01*
X193442Y163077D01*
X193689Y163480D01*
X193870Y163916D01*
X193980Y164375D01*
X194017Y164846D01*
X193980Y165317D01*
X193870Y165776D01*
X193689Y166212D01*
X193442Y166615D01*
X193136Y166974D01*
X192777Y167281D01*
X192374Y167527D01*
X191938Y167708D01*
X192060Y168190D01*
X192971D01*
X193072Y168072D01*
X193431Y167766D01*
X193834Y167519D01*
X194270Y167338D01*
X194729Y167228D01*
X195200Y167191D01*
X195671Y167228D01*
X196130Y167338D01*
X196566Y167519D01*
X196969Y167766D01*
X197328Y168072D01*
X197635Y168431D01*
X197881Y168834D01*
X198062Y169270D01*
X198172Y169729D01*
X198209Y170200D01*
X198172Y170671D01*
X198062Y171130D01*
X197881Y171566D01*
X197635Y171969D01*
X197401Y172242D01*
X197482Y172553D01*
X197612Y172742D01*
X200971D01*
X201072Y172624D01*
X201431Y172318D01*
X201834Y172071D01*
X202270Y171890D01*
X202729Y171780D01*
X203200Y171743D01*
X203671Y171780D01*
X204130Y171890D01*
X204566Y172071D01*
X204969Y172318D01*
X205328Y172624D01*
X205634Y172983D01*
X205881Y173386D01*
X206062Y173822D01*
X206172Y174281D01*
X206209Y174752D01*
X206172Y175223D01*
X206062Y175682D01*
X205881Y176118D01*
X205634Y176521D01*
X205328Y176880D01*
X204969Y177187D01*
X204566Y177433D01*
X204130Y177614D01*
X203671Y177724D01*
X203200Y177761D01*
X202729Y177724D01*
X202270Y177614D01*
X201834Y177433D01*
X201431Y177187D01*
X201072Y176880D01*
X200971Y176762D01*
X192087D01*
X191938Y177224D01*
X192374Y177405D01*
X192777Y177652D01*
X193136Y177958D01*
X193442Y178317D01*
X193689Y178720D01*
X193870Y179156D01*
X193980Y179615D01*
X194017Y180086D01*
X193980Y180557D01*
X193870Y181016D01*
X193689Y181452D01*
X193442Y181855D01*
X193267Y182060D01*
X193471Y182553D01*
X193478Y182560D01*
X195585D01*
Y190640D01*
X192016D01*
Y199892D01*
X193006Y200882D01*
Y206882D01*
X191506Y208382D01*
D02*
G37*
G36*
X229870Y204939D02*
X229399Y204902D01*
X228940Y204792D01*
X228504Y204611D01*
X228101Y204364D01*
X227742Y204058D01*
X227435Y203699D01*
X227189Y203296D01*
X227008Y202860D01*
X226898Y202401D01*
X226861Y201930D01*
X226898Y201459D01*
X227008Y201000D01*
X227189Y200564D01*
X227435Y200161D01*
X227742Y199802D01*
X227860Y199701D01*
Y198879D01*
X225830D01*
Y189529D01*
X233910D01*
Y198205D01*
X234372Y198396D01*
X235815Y196953D01*
X235983Y196815D01*
Y193374D01*
X236012Y193080D01*
X236098Y192797D01*
X236237Y192537D01*
X236424Y192308D01*
X236653Y192121D01*
X236913Y191982D01*
X237196Y191896D01*
X237490Y191867D01*
X245340D01*
X245634Y191896D01*
X245917Y191982D01*
X246177Y192121D01*
X246330Y192246D01*
X246612Y192176D01*
X246830Y192037D01*
Y191031D01*
X246712Y190930D01*
X246406Y190571D01*
X246159Y190168D01*
X245978Y189732D01*
X245868Y189273D01*
X245831Y188802D01*
X245868Y188331D01*
X245978Y187872D01*
X246159Y187436D01*
X246406Y187033D01*
X246712Y186674D01*
X247071Y186367D01*
X247474Y186121D01*
X247910Y185940D01*
X248369Y185830D01*
X248840Y185793D01*
X249311Y185830D01*
X249770Y185940D01*
X250206Y186121D01*
X250609Y186367D01*
X250968Y186674D01*
X251275Y187033D01*
X251521Y187436D01*
X251702Y187872D01*
X251812Y188331D01*
X251849Y188802D01*
X251812Y189273D01*
X251702Y189732D01*
X251521Y190168D01*
X251275Y190571D01*
X250968Y190930D01*
X250850Y191031D01*
Y191867D01*
X251460D01*
X251754Y191896D01*
X252037Y191982D01*
X252297Y192121D01*
X252526Y192308D01*
X252713Y192537D01*
X252852Y192797D01*
X252938Y193080D01*
X252967Y193374D01*
Y203374D01*
X252938Y203668D01*
X252852Y203951D01*
X252713Y204211D01*
X252526Y204440D01*
X252297Y204627D01*
X252037Y204767D01*
X251754Y204852D01*
X251460Y204881D01*
X247840D01*
X247546Y204852D01*
X247263Y204767D01*
X247003Y204627D01*
X246941Y204576D01*
X246406Y204440D01*
X246177Y204627D01*
X245917Y204767D01*
X245634Y204852D01*
X245340Y204881D01*
X237490D01*
X237196Y204852D01*
X236913Y204767D01*
X236653Y204627D01*
X236424Y204440D01*
X236237Y204211D01*
X236098Y203951D01*
X236012Y203668D01*
X235983Y203374D01*
Y203123D01*
X235521Y202931D01*
X235101Y203351D01*
X234797Y203601D01*
X234449Y203787D01*
X234072Y203901D01*
X233680Y203940D01*
X232099D01*
X231998Y204058D01*
X231639Y204364D01*
X231236Y204611D01*
X230800Y204792D01*
X230341Y204902D01*
X229870Y204939D01*
D02*
G37*
G36*
X277000Y229510D02*
X276084Y229470D01*
X275175Y229350D01*
X274280Y229152D01*
X273405Y228876D01*
X272558Y228525D01*
X271745Y228102D01*
X270972Y227609D01*
X270244Y227051D01*
X269568Y226432D01*
X268949Y225756D01*
X268391Y225028D01*
X267898Y224255D01*
X267475Y223442D01*
X267124Y222595D01*
X266848Y221720D01*
X266650Y220825D01*
X266530Y219916D01*
X266490Y219000D01*
X266530Y218084D01*
X266650Y217175D01*
X266848Y216280D01*
X267124Y215405D01*
X267475Y214558D01*
X267898Y213745D01*
X268391Y212972D01*
X268949Y212244D01*
X269568Y211568D01*
X270244Y210949D01*
X270972Y210391D01*
X271745Y209898D01*
X272558Y209475D01*
X273405Y209124D01*
X274280Y208848D01*
X275175Y208650D01*
X276084Y208530D01*
X277000Y208490D01*
X277916Y208530D01*
X278825Y208650D01*
X279720Y208848D01*
X280595Y209124D01*
X281442Y209475D01*
X282255Y209898D01*
X283028Y210391D01*
X283756Y210949D01*
X284432Y211568D01*
X285051Y212244D01*
X285609Y212972D01*
X286102Y213745D01*
X286525Y214558D01*
X286876Y215405D01*
X287152Y216280D01*
X287350Y217175D01*
X287470Y218084D01*
X287510Y219000D01*
X287470Y219916D01*
X287350Y220825D01*
X287152Y221720D01*
X286876Y222595D01*
X286525Y223442D01*
X286102Y224255D01*
X285609Y225028D01*
X285051Y225756D01*
X284432Y226432D01*
X283756Y227051D01*
X283028Y227609D01*
X282255Y228102D01*
X281442Y228525D01*
X280595Y228876D01*
X279720Y229152D01*
X278825Y229350D01*
X277916Y229470D01*
X277000Y229510D01*
D02*
G37*
G36*
X23000Y127910D02*
X22084Y127870D01*
X21175Y127750D01*
X20280Y127552D01*
X19405Y127276D01*
X18558Y126925D01*
X17745Y126502D01*
X16972Y126009D01*
X16244Y125451D01*
X15568Y124832D01*
X14949Y124156D01*
X14391Y123428D01*
X13898Y122655D01*
X13475Y121842D01*
X13124Y120995D01*
X12848Y120120D01*
X12650Y119225D01*
X12530Y118316D01*
X12490Y117400D01*
X12530Y116484D01*
X12650Y115575D01*
X12848Y114680D01*
X13124Y113805D01*
X13475Y112958D01*
X13898Y112145D01*
X14391Y111372D01*
X14949Y110644D01*
X15568Y109968D01*
X16244Y109349D01*
X16972Y108791D01*
X17745Y108298D01*
X18558Y107875D01*
X19405Y107524D01*
X20280Y107248D01*
X21175Y107050D01*
X22084Y106930D01*
X23000Y106890D01*
X23916Y106930D01*
X24825Y107050D01*
X25720Y107248D01*
X26595Y107524D01*
X27442Y107875D01*
X28255Y108298D01*
X29028Y108791D01*
X29756Y109349D01*
X30432Y109968D01*
X31051Y110644D01*
X31609Y111372D01*
X32102Y112145D01*
X32525Y112958D01*
X32876Y113805D01*
X33152Y114680D01*
X33350Y115575D01*
X33470Y116484D01*
X33510Y117400D01*
X33470Y118316D01*
X33350Y119225D01*
X33152Y120120D01*
X32876Y120995D01*
X32525Y121842D01*
X32102Y122655D01*
X31609Y123428D01*
X31051Y124156D01*
X30432Y124832D01*
X29756Y125451D01*
X29028Y126009D01*
X28255Y126502D01*
X27442Y126925D01*
X26595Y127276D01*
X25720Y127552D01*
X24825Y127750D01*
X23916Y127870D01*
X23000Y127910D01*
D02*
G37*
G36*
X277000Y102510D02*
X276084Y102470D01*
X275175Y102350D01*
X274280Y102152D01*
X273405Y101876D01*
X272558Y101525D01*
X271745Y101102D01*
X270972Y100609D01*
X270244Y100051D01*
X269568Y99432D01*
X268949Y98756D01*
X268391Y98028D01*
X267898Y97255D01*
X267475Y96442D01*
X267124Y95595D01*
X266848Y94720D01*
X266650Y93825D01*
X266530Y92916D01*
X266490Y92000D01*
X266530Y91084D01*
X266650Y90175D01*
X266848Y89280D01*
X267124Y88405D01*
X267475Y87558D01*
X267898Y86745D01*
X268391Y85972D01*
X268949Y85244D01*
X269568Y84568D01*
X270244Y83949D01*
X270972Y83391D01*
X271745Y82898D01*
X272558Y82475D01*
X273405Y82124D01*
X274280Y81848D01*
X275175Y81650D01*
X276084Y81530D01*
X277000Y81490D01*
X277916Y81530D01*
X278825Y81650D01*
X279720Y81848D01*
X280595Y82124D01*
X281442Y82475D01*
X282255Y82898D01*
X283028Y83391D01*
X283756Y83949D01*
X284432Y84568D01*
X285051Y85244D01*
X285609Y85972D01*
X286102Y86745D01*
X286525Y87558D01*
X286876Y88405D01*
X287152Y89280D01*
X287350Y90175D01*
X287470Y91084D01*
X287510Y92000D01*
X287470Y92916D01*
X287350Y93825D01*
X287152Y94720D01*
X286876Y95595D01*
X286525Y96442D01*
X286102Y97255D01*
X285609Y98028D01*
X285051Y98756D01*
X284432Y99432D01*
X283756Y100051D01*
X283028Y100609D01*
X282255Y101102D01*
X281442Y101525D01*
X280595Y101876D01*
X279720Y102152D01*
X278825Y102350D01*
X277916Y102470D01*
X277000Y102510D01*
D02*
G37*
G36*
X69302Y26337D02*
X42302D01*
X42008Y26308D01*
X41725Y26222D01*
X41465Y26083D01*
X41237Y25896D01*
X41049Y25667D01*
X40910Y25406D01*
X40824Y25124D01*
X40795Y24830D01*
Y12830D01*
X40824Y12536D01*
X40910Y12253D01*
X41049Y11992D01*
X41237Y11764D01*
X41465Y11576D01*
X41725Y11437D01*
X42008Y11351D01*
X42302Y11322D01*
X69302D01*
X69596Y11351D01*
X69879Y11437D01*
X70140Y11576D01*
X70368Y11764D01*
X70556Y11992D01*
X70695Y12253D01*
X70781Y12536D01*
X70809Y12830D01*
Y24830D01*
X70781Y25124D01*
X70695Y25406D01*
X70556Y25667D01*
X70368Y25896D01*
X70140Y26083D01*
X69879Y26222D01*
X69596Y26308D01*
X69302Y26337D01*
D02*
G37*
G36*
X23000Y178710D02*
X22084Y178670D01*
X21175Y178550D01*
X20280Y178352D01*
X19405Y178076D01*
X18558Y177725D01*
X17745Y177302D01*
X16972Y176809D01*
X16244Y176251D01*
X15568Y175632D01*
X14949Y174956D01*
X14391Y174228D01*
X13898Y173455D01*
X13475Y172642D01*
X13124Y171795D01*
X12848Y170920D01*
X12650Y170025D01*
X12530Y169116D01*
X12490Y168200D01*
X12530Y167284D01*
X12650Y166375D01*
X12848Y165480D01*
X13124Y164605D01*
X13475Y163758D01*
X13898Y162945D01*
X14391Y162172D01*
X14949Y161444D01*
X15568Y160768D01*
X16244Y160149D01*
X16972Y159591D01*
X17745Y159098D01*
X18558Y158675D01*
X19405Y158324D01*
X20280Y158048D01*
X21175Y157850D01*
X22084Y157730D01*
X23000Y157690D01*
X23916Y157730D01*
X24825Y157850D01*
X25720Y158048D01*
X26595Y158324D01*
X27442Y158675D01*
X28255Y159098D01*
X29028Y159591D01*
X29756Y160149D01*
X30432Y160768D01*
X31051Y161444D01*
X31609Y162172D01*
X32102Y162945D01*
X32525Y163758D01*
X32876Y164605D01*
X33152Y165480D01*
X33350Y166375D01*
X33470Y167284D01*
X33510Y168200D01*
X33470Y169116D01*
X33350Y170025D01*
X33152Y170920D01*
X32876Y171795D01*
X32525Y172642D01*
X32102Y173455D01*
X31609Y174228D01*
X31051Y174956D01*
X30432Y175632D01*
X29756Y176251D01*
X29028Y176809D01*
X28255Y177302D01*
X27442Y177725D01*
X26595Y178076D01*
X25720Y178352D01*
X24825Y178550D01*
X23916Y178670D01*
X23000Y178710D01*
D02*
G37*
G36*
X277000Y153310D02*
X276084Y153270D01*
X275175Y153150D01*
X274280Y152952D01*
X273405Y152676D01*
X272558Y152325D01*
X271745Y151902D01*
X270972Y151409D01*
X270244Y150851D01*
X269568Y150232D01*
X268949Y149556D01*
X268391Y148828D01*
X267898Y148055D01*
X267475Y147242D01*
X267124Y146395D01*
X266848Y145520D01*
X266650Y144625D01*
X266530Y143716D01*
X266490Y142800D01*
X266530Y141884D01*
X266650Y140975D01*
X266848Y140080D01*
X267124Y139205D01*
X267475Y138358D01*
X267898Y137545D01*
X268391Y136772D01*
X268949Y136044D01*
X269568Y135368D01*
X270244Y134749D01*
X270972Y134191D01*
X271745Y133698D01*
X272558Y133275D01*
X273405Y132924D01*
X274280Y132648D01*
X275175Y132450D01*
X276084Y132330D01*
X277000Y132290D01*
X277916Y132330D01*
X278825Y132450D01*
X279720Y132648D01*
X280595Y132924D01*
X281442Y133275D01*
X282255Y133698D01*
X283028Y134191D01*
X283756Y134749D01*
X284432Y135368D01*
X285051Y136044D01*
X285609Y136772D01*
X286102Y137545D01*
X286525Y138358D01*
X286876Y139205D01*
X287152Y140080D01*
X287350Y140975D01*
X287470Y141884D01*
X287510Y142800D01*
X287470Y143716D01*
X287350Y144625D01*
X287152Y145520D01*
X286876Y146395D01*
X286525Y147242D01*
X286102Y148055D01*
X285609Y148828D01*
X285051Y149556D01*
X284432Y150232D01*
X283756Y150851D01*
X283028Y151409D01*
X282255Y151902D01*
X281442Y152325D01*
X280595Y152676D01*
X279720Y152952D01*
X278825Y153150D01*
X277916Y153270D01*
X277000Y153310D01*
D02*
G37*
G36*
X23000D02*
X22084Y153270D01*
X21175Y153150D01*
X20280Y152952D01*
X19405Y152676D01*
X18558Y152325D01*
X17745Y151902D01*
X16972Y151409D01*
X16244Y150851D01*
X15568Y150232D01*
X14949Y149556D01*
X14391Y148828D01*
X13898Y148055D01*
X13475Y147242D01*
X13124Y146395D01*
X12848Y145520D01*
X12650Y144625D01*
X12530Y143716D01*
X12490Y142800D01*
X12530Y141884D01*
X12650Y140975D01*
X12848Y140080D01*
X13124Y139205D01*
X13475Y138358D01*
X13898Y137545D01*
X14391Y136772D01*
X14949Y136044D01*
X15568Y135368D01*
X16244Y134749D01*
X16972Y134191D01*
X17745Y133698D01*
X18558Y133275D01*
X19405Y132924D01*
X20280Y132648D01*
X21175Y132450D01*
X22084Y132330D01*
X23000Y132290D01*
X23916Y132330D01*
X24825Y132450D01*
X25720Y132648D01*
X26595Y132924D01*
X27442Y133275D01*
X28255Y133698D01*
X29028Y134191D01*
X29756Y134749D01*
X30432Y135368D01*
X31051Y136044D01*
X31609Y136772D01*
X32102Y137545D01*
X32525Y138358D01*
X32876Y139205D01*
X33152Y140080D01*
X33350Y140975D01*
X33470Y141884D01*
X33510Y142800D01*
X33470Y143716D01*
X33350Y144625D01*
X33152Y145520D01*
X32876Y146395D01*
X32525Y147242D01*
X32102Y148055D01*
X31609Y148828D01*
X31051Y149556D01*
X30432Y150232D01*
X29756Y150851D01*
X29028Y151409D01*
X28255Y151902D01*
X27442Y152325D01*
X26595Y152676D01*
X25720Y152952D01*
X24825Y153150D01*
X23916Y153270D01*
X23000Y153310D01*
D02*
G37*
G36*
Y254910D02*
X22084Y254870D01*
X21175Y254750D01*
X20280Y254552D01*
X19405Y254276D01*
X18558Y253925D01*
X17745Y253502D01*
X16972Y253009D01*
X16244Y252451D01*
X15568Y251832D01*
X14949Y251156D01*
X14391Y250428D01*
X13898Y249655D01*
X13475Y248842D01*
X13124Y247995D01*
X12848Y247120D01*
X12650Y246225D01*
X12530Y245316D01*
X12490Y244400D01*
X12530Y243484D01*
X12650Y242575D01*
X12848Y241680D01*
X13124Y240805D01*
X13475Y239958D01*
X13898Y239145D01*
X14391Y238372D01*
X14949Y237644D01*
X15568Y236968D01*
X16244Y236349D01*
X16972Y235791D01*
X17745Y235298D01*
X18558Y234875D01*
X19405Y234524D01*
X20280Y234248D01*
X21175Y234050D01*
X22084Y233930D01*
X23000Y233890D01*
X23916Y233930D01*
X24825Y234050D01*
X25720Y234248D01*
X26595Y234524D01*
X27442Y234875D01*
X28255Y235298D01*
X29028Y235791D01*
X29756Y236349D01*
X30432Y236968D01*
X31051Y237644D01*
X31609Y238372D01*
X32102Y239145D01*
X32525Y239958D01*
X32876Y240805D01*
X33152Y241680D01*
X33350Y242575D01*
X33470Y243484D01*
X33510Y244400D01*
X33470Y245316D01*
X33350Y246225D01*
X33152Y247120D01*
X32876Y247995D01*
X32525Y248842D01*
X32102Y249655D01*
X31609Y250428D01*
X31051Y251156D01*
X30432Y251832D01*
X29756Y252451D01*
X29028Y253009D01*
X28255Y253502D01*
X27442Y253925D01*
X26595Y254276D01*
X25720Y254552D01*
X24825Y254750D01*
X23916Y254870D01*
X23000Y254910D01*
D02*
G37*
G36*
X130540Y291485D02*
X122460D01*
Y283608D01*
X122401Y283535D01*
X121960Y283319D01*
X121797Y283407D01*
X121420Y283521D01*
X121028Y283560D01*
X118644D01*
Y286800D01*
X107144D01*
Y276300D01*
X118644D01*
Y279540D01*
X120195D01*
X124957Y274779D01*
X125261Y274529D01*
X125609Y274343D01*
X125986Y274229D01*
X126378Y274190D01*
X131868D01*
X132006Y274052D01*
Y268858D01*
X133506Y267358D01*
X136506D01*
X137506Y268358D01*
X138506Y267358D01*
X141506D01*
X143006Y268858D01*
Y274858D01*
X142016Y275848D01*
Y276094D01*
X141977Y276486D01*
X141863Y276863D01*
X141677Y277211D01*
X141427Y277515D01*
X139597Y279345D01*
X139609Y279500D01*
X139572Y279971D01*
X139462Y280430D01*
X139281Y280866D01*
X139035Y281269D01*
X138807Y281535D01*
X138899Y281865D01*
X139021Y282035D01*
X140640D01*
Y291385D01*
X132560D01*
Y282035D01*
X133670D01*
X133760Y281947D01*
X133912Y281535D01*
X133881Y281510D01*
X130267D01*
X130179Y281635D01*
X130441Y282135D01*
X130540D01*
Y291485D01*
D02*
G37*
G36*
X23000Y305710D02*
X22084Y305670D01*
X21175Y305550D01*
X20280Y305352D01*
X19405Y305076D01*
X18558Y304725D01*
X17745Y304302D01*
X16972Y303809D01*
X16244Y303251D01*
X15568Y302632D01*
X14949Y301956D01*
X14391Y301228D01*
X13898Y300455D01*
X13475Y299642D01*
X13124Y298795D01*
X12848Y297920D01*
X12650Y297025D01*
X12530Y296116D01*
X12490Y295200D01*
X12530Y294284D01*
X12650Y293375D01*
X12848Y292480D01*
X13124Y291605D01*
X13475Y290758D01*
X13898Y289945D01*
X14391Y289172D01*
X14949Y288444D01*
X15568Y287768D01*
X16244Y287149D01*
X16972Y286591D01*
X17745Y286098D01*
X18558Y285675D01*
X19405Y285324D01*
X20280Y285048D01*
X21175Y284850D01*
X22084Y284730D01*
X23000Y284690D01*
X23916Y284730D01*
X24825Y284850D01*
X25720Y285048D01*
X26595Y285324D01*
X27442Y285675D01*
X28255Y286098D01*
X29028Y286591D01*
X29756Y287149D01*
X30432Y287768D01*
X31051Y288444D01*
X31609Y289172D01*
X32102Y289945D01*
X32525Y290758D01*
X32876Y291605D01*
X33152Y292480D01*
X33350Y293375D01*
X33470Y294284D01*
X33510Y295200D01*
X33470Y296116D01*
X33350Y297025D01*
X33152Y297920D01*
X32876Y298795D01*
X32525Y299642D01*
X32102Y300455D01*
X31609Y301228D01*
X31051Y301956D01*
X30432Y302632D01*
X29756Y303251D01*
X29028Y303809D01*
X28255Y304302D01*
X27442Y304725D01*
X26595Y305076D01*
X25720Y305352D01*
X24825Y305550D01*
X23916Y305670D01*
X23000Y305710D01*
D02*
G37*
G36*
X99920Y258450D02*
X81680D01*
Y242750D01*
X99920D01*
Y248343D01*
X104123D01*
X104331Y248165D01*
X104734Y247919D01*
X105170Y247738D01*
X105629Y247628D01*
X106100Y247591D01*
X106571Y247628D01*
X107030Y247738D01*
X107466Y247919D01*
X107869Y248165D01*
X108228Y248472D01*
X108534Y248831D01*
X108781Y249234D01*
X108962Y249670D01*
X109072Y250129D01*
X109109Y250600D01*
X109072Y251071D01*
X108962Y251530D01*
X108781Y251966D01*
X108534Y252369D01*
X108228Y252728D01*
X107869Y253034D01*
X107466Y253281D01*
X107030Y253462D01*
X106571Y253572D01*
X106100Y253609D01*
X105629Y253572D01*
X105170Y253462D01*
X104734Y253281D01*
X104331Y253034D01*
X104123Y252857D01*
X99920D01*
Y258450D01*
D02*
G37*
G36*
X23000Y280310D02*
X22084Y280270D01*
X21175Y280150D01*
X20280Y279952D01*
X19405Y279676D01*
X18558Y279325D01*
X17745Y278902D01*
X16972Y278409D01*
X16244Y277851D01*
X15568Y277232D01*
X14949Y276556D01*
X14391Y275828D01*
X13898Y275055D01*
X13475Y274242D01*
X13124Y273395D01*
X12848Y272520D01*
X12650Y271625D01*
X12530Y270716D01*
X12490Y269800D01*
X12530Y268884D01*
X12650Y267975D01*
X12848Y267080D01*
X13124Y266205D01*
X13475Y265358D01*
X13898Y264545D01*
X14391Y263772D01*
X14949Y263044D01*
X15568Y262368D01*
X16244Y261749D01*
X16972Y261191D01*
X17745Y260698D01*
X18558Y260275D01*
X19405Y259924D01*
X20280Y259648D01*
X21175Y259450D01*
X22084Y259330D01*
X23000Y259290D01*
X23916Y259330D01*
X24825Y259450D01*
X25720Y259648D01*
X26595Y259924D01*
X27442Y260275D01*
X28255Y260698D01*
X29028Y261191D01*
X29756Y261749D01*
X30432Y262368D01*
X31051Y263044D01*
X31609Y263772D01*
X32102Y264545D01*
X32525Y265358D01*
X32876Y266205D01*
X33152Y267080D01*
X33350Y267975D01*
X33470Y268884D01*
X33510Y269800D01*
X33470Y270716D01*
X33350Y271625D01*
X33152Y272520D01*
X32876Y273395D01*
X32525Y274242D01*
X32102Y275055D01*
X31609Y275828D01*
X31051Y276556D01*
X30432Y277232D01*
X29756Y277851D01*
X29028Y278409D01*
X28255Y278902D01*
X27442Y279325D01*
X26595Y279676D01*
X25720Y279952D01*
X24825Y280150D01*
X23916Y280270D01*
X23000Y280310D01*
D02*
G37*
G36*
Y331110D02*
X22084Y331070D01*
X21175Y330950D01*
X20280Y330752D01*
X19405Y330476D01*
X18558Y330125D01*
X17745Y329702D01*
X16972Y329209D01*
X16244Y328651D01*
X15568Y328032D01*
X14949Y327356D01*
X14391Y326628D01*
X13898Y325855D01*
X13475Y325042D01*
X13124Y324195D01*
X12848Y323320D01*
X12650Y322425D01*
X12530Y321516D01*
X12490Y320600D01*
X12530Y319684D01*
X12650Y318775D01*
X12848Y317880D01*
X13124Y317005D01*
X13475Y316158D01*
X13898Y315345D01*
X14391Y314572D01*
X14949Y313844D01*
X15568Y313168D01*
X16244Y312549D01*
X16972Y311991D01*
X17745Y311498D01*
X18558Y311075D01*
X19405Y310724D01*
X20280Y310448D01*
X21175Y310250D01*
X22084Y310130D01*
X23000Y310090D01*
X23916Y310130D01*
X24825Y310250D01*
X25720Y310448D01*
X26595Y310724D01*
X27442Y311075D01*
X28255Y311498D01*
X29028Y311991D01*
X29756Y312549D01*
X30432Y313168D01*
X31051Y313844D01*
X31609Y314572D01*
X32102Y315345D01*
X32525Y316158D01*
X32876Y317005D01*
X33152Y317880D01*
X33350Y318775D01*
X33470Y319684D01*
X33510Y320600D01*
X33470Y321516D01*
X33350Y322425D01*
X33152Y323320D01*
X32876Y324195D01*
X32525Y325042D01*
X32102Y325855D01*
X31609Y326628D01*
X31051Y327356D01*
X30432Y328032D01*
X29756Y328651D01*
X29028Y329209D01*
X28255Y329702D01*
X27442Y330125D01*
X26595Y330476D01*
X25720Y330752D01*
X24825Y330950D01*
X23916Y331070D01*
X23000Y331110D01*
D02*
G37*
G36*
X287500Y356500D02*
X266500D01*
Y335500D01*
X287500D01*
Y356500D01*
D02*
G37*
G36*
X181500Y295009D02*
X181029Y294972D01*
X180570Y294862D01*
X180134Y294681D01*
X179731Y294435D01*
X179372Y294128D01*
X179271Y294010D01*
X178740D01*
Y294685D01*
X170660D01*
Y289602D01*
X164968Y283910D01*
X161500D01*
X161108Y283871D01*
X160731Y283757D01*
X160383Y283571D01*
X160079Y283321D01*
X153585Y276827D01*
X153335Y276523D01*
X153149Y276175D01*
X153074Y275926D01*
X152506Y275358D01*
X152030Y275834D01*
Y283830D01*
X153080D01*
Y289830D01*
X147080D01*
Y283830D01*
X148010D01*
Y275862D01*
X147006Y274858D01*
Y268858D01*
X148506Y267358D01*
X151506D01*
X152506Y268358D01*
X153506Y267358D01*
X156506D01*
X157506Y268358D01*
X158506Y267358D01*
X161506D01*
X162506Y268358D01*
X163506Y267358D01*
X166506D01*
X167506Y268358D01*
X168506Y267358D01*
X171506D01*
X172506Y268358D01*
X173506Y267358D01*
X176506D01*
X177506Y268358D01*
X178506Y267358D01*
X181506D01*
X182506Y268358D01*
X183506Y267358D01*
X186506D01*
X187506Y268358D01*
X188506Y267358D01*
X191506D01*
X193006Y268858D01*
Y274858D01*
X192016Y275848D01*
Y276042D01*
X198017Y282043D01*
X198267Y282348D01*
X198453Y282695D01*
X198567Y283072D01*
X198606Y283464D01*
Y286315D01*
X198724Y286416D01*
X199030Y286775D01*
X199277Y287178D01*
X199458Y287614D01*
X199568Y288073D01*
X199605Y288544D01*
X199568Y289015D01*
X199458Y289474D01*
X199277Y289910D01*
X199030Y290313D01*
X198724Y290672D01*
X198365Y290979D01*
X197962Y291225D01*
X197526Y291406D01*
X197067Y291516D01*
X196596Y291553D01*
X196125Y291516D01*
X195666Y291406D01*
X195230Y291225D01*
X194827Y290979D01*
X194468Y290672D01*
X194161Y290313D01*
X193915Y289910D01*
X193734Y289474D01*
X193624Y289015D01*
X193587Y288544D01*
X193624Y288073D01*
X193734Y287614D01*
X193915Y287178D01*
X194161Y286775D01*
X194468Y286416D01*
X194586Y286315D01*
Y284296D01*
X188585Y278295D01*
X188504Y278197D01*
X187990Y278358D01*
X187978Y278507D01*
X187868Y278966D01*
X187687Y279402D01*
X187440Y279805D01*
X187134Y280164D01*
X186775Y280471D01*
X186372Y280717D01*
X185936Y280898D01*
X185477Y281008D01*
X185006Y281045D01*
X184535Y281008D01*
X184076Y280898D01*
X183640Y280717D01*
X183237Y280471D01*
X182878Y280164D01*
X182731Y279992D01*
X182181Y279933D01*
X182084Y279966D01*
X181769Y280235D01*
X181469Y280418D01*
X181509Y280794D01*
X181565Y280916D01*
X181572Y280928D01*
X182030Y281038D01*
X182466Y281219D01*
X182869Y281465D01*
X183228Y281772D01*
X183535Y282131D01*
X183781Y282534D01*
X183962Y282970D01*
X184072Y283429D01*
X184109Y283900D01*
X184072Y284371D01*
X183962Y284830D01*
X183781Y285266D01*
X183535Y285669D01*
X183228Y286028D01*
X182869Y286334D01*
X182466Y286581D01*
X182030Y286762D01*
X181571Y286872D01*
X181100Y286909D01*
X180629Y286872D01*
X180170Y286762D01*
X179734Y286581D01*
X179331Y286334D01*
X179240Y286257D01*
X178740Y286487D01*
Y289990D01*
X179271D01*
X179372Y289872D01*
X179731Y289566D01*
X180134Y289319D01*
X180570Y289138D01*
X181029Y289028D01*
X181500Y288991D01*
X181971Y289028D01*
X182430Y289138D01*
X182866Y289319D01*
X183269Y289566D01*
X183628Y289872D01*
X183934Y290231D01*
X184181Y290634D01*
X184362Y291070D01*
X184472Y291529D01*
X184509Y292000D01*
X184472Y292471D01*
X184362Y292930D01*
X184181Y293366D01*
X183934Y293769D01*
X183628Y294128D01*
X183269Y294435D01*
X182866Y294681D01*
X182430Y294862D01*
X181971Y294972D01*
X181500Y295009D01*
D02*
G37*
G36*
X277000Y331110D02*
X276084Y331070D01*
X275175Y330950D01*
X274280Y330752D01*
X273405Y330476D01*
X272558Y330125D01*
X271745Y329702D01*
X270972Y329209D01*
X270244Y328651D01*
X269568Y328032D01*
X268949Y327356D01*
X268391Y326628D01*
X267898Y325855D01*
X267475Y325042D01*
X267124Y324195D01*
X266848Y323320D01*
X266650Y322425D01*
X266530Y321516D01*
X266490Y320600D01*
X266530Y319684D01*
X266650Y318775D01*
X266848Y317880D01*
X267124Y317005D01*
X267475Y316158D01*
X267898Y315345D01*
X268391Y314572D01*
X268949Y313844D01*
X269568Y313168D01*
X270244Y312549D01*
X270972Y311991D01*
X271745Y311498D01*
X272558Y311075D01*
X273405Y310724D01*
X274280Y310448D01*
X274589Y310380D01*
X274534Y309880D01*
X255832D01*
X246421Y319291D01*
X246117Y319541D01*
X245769Y319727D01*
X245392Y319841D01*
X245000Y319880D01*
X199725D01*
X199624Y319998D01*
X199265Y320304D01*
X198862Y320551D01*
X198426Y320732D01*
X197967Y320842D01*
X197496Y320879D01*
X197025Y320842D01*
X196566Y320732D01*
X196130Y320551D01*
X195727Y320304D01*
X195368Y319998D01*
X195061Y319639D01*
X194815Y319236D01*
X194634Y318800D01*
X194524Y318341D01*
X194487Y317870D01*
X194524Y317399D01*
X194634Y316940D01*
X194815Y316504D01*
X195061Y316101D01*
X195368Y315742D01*
X195727Y315436D01*
X196130Y315189D01*
X196566Y315008D01*
X197025Y314898D01*
X197496Y314861D01*
X197967Y314898D01*
X198426Y315008D01*
X198862Y315189D01*
X199265Y315436D01*
X199624Y315742D01*
X199725Y315860D01*
X244168D01*
X253579Y306449D01*
X253883Y306199D01*
X254231Y306013D01*
X254608Y305899D01*
X255000Y305860D01*
X274263D01*
X274318Y305360D01*
X274280Y305352D01*
X273405Y305076D01*
X272558Y304725D01*
X271745Y304302D01*
X270972Y303809D01*
X270244Y303251D01*
X269568Y302632D01*
X268949Y301956D01*
X268391Y301228D01*
X267898Y300455D01*
X267475Y299642D01*
X267124Y298795D01*
X266848Y297920D01*
X266650Y297025D01*
X266530Y296116D01*
X266490Y295200D01*
X266530Y294284D01*
X266650Y293375D01*
X266848Y292480D01*
X267124Y291605D01*
X267475Y290758D01*
X267898Y289945D01*
X268391Y289172D01*
X268949Y288444D01*
X269568Y287768D01*
X270244Y287149D01*
X270972Y286591D01*
X271745Y286098D01*
X272558Y285675D01*
X273405Y285324D01*
X274280Y285048D01*
X275175Y284850D01*
X276084Y284730D01*
X277000Y284690D01*
X277916Y284730D01*
X278825Y284850D01*
X279720Y285048D01*
X280595Y285324D01*
X281442Y285675D01*
X282255Y286098D01*
X283028Y286591D01*
X283756Y287149D01*
X284432Y287768D01*
X285051Y288444D01*
X285609Y289172D01*
X285790Y289456D01*
X286290Y289310D01*
Y275690D01*
X285790Y275544D01*
X285609Y275828D01*
X285051Y276556D01*
X284432Y277232D01*
X283756Y277851D01*
X283028Y278409D01*
X282255Y278902D01*
X281442Y279325D01*
X280595Y279676D01*
X279720Y279952D01*
X278825Y280150D01*
X277916Y280270D01*
X277000Y280310D01*
X276084Y280270D01*
X275175Y280150D01*
X274280Y279952D01*
X273405Y279676D01*
X272558Y279325D01*
X271745Y278902D01*
X270972Y278409D01*
X270244Y277851D01*
X269568Y277232D01*
X268949Y276556D01*
X268391Y275828D01*
X267898Y275055D01*
X267475Y274242D01*
X267124Y273395D01*
X266848Y272520D01*
X266650Y271625D01*
X266530Y270716D01*
X266490Y269800D01*
X266530Y268884D01*
X266650Y267975D01*
X266848Y267080D01*
X267124Y266205D01*
X267475Y265358D01*
X267898Y264545D01*
X268391Y263772D01*
X268949Y263044D01*
X269568Y262368D01*
X270244Y261749D01*
X270972Y261191D01*
X271745Y260698D01*
X272558Y260275D01*
X273405Y259924D01*
X274280Y259648D01*
X275106Y259465D01*
X275201Y259284D01*
X275255Y258935D01*
X275240Y258922D01*
X274933Y258563D01*
X274687Y258160D01*
X274506Y257724D01*
X274396Y257265D01*
X274359Y256794D01*
X274396Y256323D01*
X274494Y255916D01*
X274408Y255760D01*
X274130Y255465D01*
X271905Y255804D01*
X269055Y256344D01*
X268564Y256466D01*
X268360Y256533D01*
X268290Y256571D01*
X268214Y256603D01*
X268141Y256643D01*
X268079Y256661D01*
X268019Y256687D01*
X267938Y256704D01*
X267858Y256728D01*
X267793Y256735D01*
X267730Y256748D01*
X267647Y256749D01*
X267564Y256757D01*
X267499Y256751D01*
X267491Y256751D01*
X256010Y268232D01*
Y295756D01*
X256020Y295860D01*
X255981Y296252D01*
X255867Y296629D01*
X255681Y296976D01*
X255431Y297281D01*
X247507Y305205D01*
X247202Y305455D01*
X246855Y305641D01*
X246478Y305755D01*
X246086Y305794D01*
X209042D01*
X208650Y305755D01*
X208273Y305641D01*
X207925Y305455D01*
X207621Y305205D01*
X201005Y298589D01*
X200755Y298285D01*
X200570Y297937D01*
X200455Y297560D01*
X200417Y297168D01*
Y268537D01*
X199916Y268036D01*
X199474Y268478D01*
X193474D01*
X191974Y266978D01*
Y263978D01*
X192974Y262978D01*
X191974Y261978D01*
Y258978D01*
X192974Y257978D01*
X191974Y256978D01*
Y253978D01*
X192974Y252978D01*
X191974Y251978D01*
Y248978D01*
X192974Y247978D01*
X191974Y246978D01*
Y243978D01*
X192974Y242978D01*
X191974Y241978D01*
Y238978D01*
X192974Y237978D01*
X191974Y236978D01*
Y233978D01*
X192974Y232978D01*
X191974Y231978D01*
Y228978D01*
X192974Y227978D01*
X191974Y226978D01*
Y223978D01*
X192974Y222978D01*
X191974Y221978D01*
Y218978D01*
X192974Y217978D01*
X191974Y216978D01*
Y213978D01*
X193009Y212942D01*
X191974Y211907D01*
Y208907D01*
X193474Y207407D01*
X199474D01*
X200464Y208397D01*
X201257D01*
X202460Y207194D01*
Y200890D01*
X199795D01*
Y199371D01*
X199295Y199141D01*
X199127Y199284D01*
X198724Y199531D01*
X198288Y199712D01*
X197829Y199822D01*
X197358Y199859D01*
X196887Y199822D01*
X196428Y199712D01*
X195992Y199531D01*
X195589Y199284D01*
X195230Y198978D01*
X194923Y198619D01*
X194677Y198216D01*
X194496Y197780D01*
X194386Y197321D01*
X194349Y196850D01*
X194386Y196379D01*
X194496Y195920D01*
X194677Y195484D01*
X194923Y195081D01*
X195230Y194722D01*
X195589Y194415D01*
X195992Y194169D01*
X196428Y193988D01*
X196887Y193878D01*
X197358Y193841D01*
X197829Y193878D01*
X198288Y193988D01*
X198724Y194169D01*
X199127Y194415D01*
X199295Y194559D01*
X199795Y194329D01*
Y192810D01*
X209145D01*
Y200890D01*
X206480D01*
Y203063D01*
X206880Y203304D01*
X222380D01*
Y208302D01*
X224646D01*
Y206272D01*
X233995D01*
Y214352D01*
X224646D01*
Y212322D01*
X222380D01*
Y216304D01*
X209996D01*
X209401Y216899D01*
X209096Y217149D01*
X208749Y217335D01*
X208372Y217449D01*
X207980Y217488D01*
X200464D01*
X199974Y217978D01*
X200464Y218468D01*
X206880D01*
Y218304D01*
X222380D01*
Y219224D01*
X224687D01*
Y217194D01*
X234037D01*
Y225274D01*
X224687D01*
Y223244D01*
X222380D01*
Y229520D01*
X222880Y229876D01*
X223044Y229860D01*
X224052D01*
Y227587D01*
X232132D01*
Y229860D01*
X236014D01*
Y224974D01*
X242014D01*
Y229860D01*
X244880D01*
Y227841D01*
X252960D01*
Y237191D01*
X244880D01*
Y233880D01*
X242014D01*
Y234474D01*
X236014D01*
Y233880D01*
X232132D01*
Y236937D01*
X224052D01*
Y234411D01*
X223552Y234204D01*
X213635Y244121D01*
X213330Y244371D01*
X213107Y244490D01*
X213232Y244990D01*
X218161D01*
X218553Y245029D01*
X218930Y245143D01*
X219277Y245329D01*
X219582Y245579D01*
X229823Y255820D01*
X235695D01*
Y263900D01*
X233030D01*
Y265343D01*
X237510D01*
Y276343D01*
X224510D01*
Y265343D01*
X229011D01*
Y263900D01*
X226346D01*
Y258027D01*
X225776Y257457D01*
X225276Y257664D01*
Y262890D01*
X225237Y263282D01*
X225123Y263659D01*
X224937Y264007D01*
X224687Y264311D01*
X223723Y265275D01*
X223735Y265430D01*
X223698Y265901D01*
X223588Y266360D01*
X223407Y266796D01*
X223160Y267199D01*
X222854Y267558D01*
X222495Y267864D01*
X222092Y268111D01*
X221656Y268292D01*
X221197Y268402D01*
X220726Y268439D01*
X220255Y268402D01*
X219796Y268292D01*
X219360Y268111D01*
X218957Y267864D01*
X218598Y267558D01*
X218291Y267199D01*
X218045Y266796D01*
X217864Y266360D01*
X217754Y265901D01*
X217717Y265430D01*
X217754Y264959D01*
X217864Y264500D01*
X218045Y264064D01*
X218153Y263887D01*
X218056Y263492D01*
X217993Y263363D01*
X217937Y263306D01*
X217582Y263159D01*
X217179Y262913D01*
X216820Y262606D01*
X216719Y262488D01*
X200464D01*
X199974Y262978D01*
X200493Y263497D01*
X200592Y263507D01*
X200969Y263621D01*
X201317Y263807D01*
X201621Y264057D01*
X203847Y266283D01*
X204097Y266588D01*
X204283Y266935D01*
X204397Y267312D01*
X204436Y267704D01*
Y296336D01*
X209874Y301774D01*
X245254D01*
X251990Y295038D01*
Y267400D01*
X252029Y267008D01*
X252143Y266631D01*
X252329Y266283D01*
X252579Y265979D01*
X264648Y253909D01*
X264643Y253862D01*
X264644Y253848D01*
X264643Y253836D01*
X264656Y253703D01*
X264667Y253567D01*
X266607Y242864D01*
X266610Y242852D01*
X266611Y242839D01*
X266618Y242818D01*
X266650Y242575D01*
X266848Y241680D01*
X267124Y240805D01*
X267475Y239958D01*
X267898Y239145D01*
X268391Y238372D01*
X268949Y237644D01*
X269568Y236968D01*
X270244Y236349D01*
X270972Y235791D01*
X271745Y235298D01*
X272558Y234875D01*
X273405Y234524D01*
X274280Y234248D01*
X275175Y234050D01*
X276084Y233930D01*
X277000Y233890D01*
X277916Y233930D01*
X278825Y234050D01*
X279720Y234248D01*
X280595Y234524D01*
X281442Y234875D01*
X282255Y235298D01*
X283028Y235791D01*
X283756Y236349D01*
X284432Y236968D01*
X285051Y237644D01*
X285609Y238372D01*
X286102Y239145D01*
X286525Y239958D01*
X286876Y240805D01*
X287152Y241680D01*
X287350Y242575D01*
X287470Y243484D01*
X287510Y244400D01*
X287470Y245316D01*
X287350Y246225D01*
X287152Y247120D01*
X286876Y247995D01*
X286525Y248842D01*
X286102Y249655D01*
X285609Y250428D01*
X285051Y251156D01*
X284432Y251832D01*
X283756Y252451D01*
X283028Y253009D01*
X282255Y253502D01*
X281442Y253925D01*
X280595Y254276D01*
X280569Y254284D01*
X280646Y254784D01*
X281494D01*
X281886Y254823D01*
X282263Y254937D01*
X282610Y255123D01*
X282915Y255373D01*
X289721Y262179D01*
X289971Y262484D01*
X290157Y262831D01*
X290271Y263208D01*
X290310Y263600D01*
Y300230D01*
X290271Y300622D01*
X290157Y300999D01*
X289971Y301346D01*
X289721Y301651D01*
X282081Y309291D01*
X281777Y309541D01*
X281429Y309727D01*
X281052Y309841D01*
X280660Y309880D01*
X279466D01*
X279411Y310380D01*
X279720Y310448D01*
X280595Y310724D01*
X281442Y311075D01*
X282255Y311498D01*
X283028Y311991D01*
X283756Y312549D01*
X284432Y313168D01*
X285051Y313844D01*
X285609Y314572D01*
X286102Y315345D01*
X286525Y316158D01*
X286876Y317005D01*
X287152Y317880D01*
X287350Y318775D01*
X287470Y319684D01*
X287510Y320600D01*
X287470Y321516D01*
X287350Y322425D01*
X287152Y323320D01*
X286876Y324195D01*
X286525Y325042D01*
X286102Y325855D01*
X285609Y326628D01*
X285051Y327356D01*
X284432Y328032D01*
X283756Y328651D01*
X283028Y329209D01*
X282255Y329702D01*
X281442Y330125D01*
X280595Y330476D01*
X279720Y330752D01*
X278825Y330950D01*
X277916Y331070D01*
X277000Y331110D01*
D02*
G37*
G36*
X231000Y300879D02*
X230529Y300842D01*
X230070Y300732D01*
X229634Y300551D01*
X229231Y300305D01*
X228872Y299998D01*
X228566Y299639D01*
X228319Y299236D01*
X228138Y298800D01*
X228028Y298341D01*
X227991Y297870D01*
X228028Y297399D01*
X228138Y296940D01*
X228319Y296504D01*
X228566Y296101D01*
X228872Y295742D01*
X228990Y295641D01*
Y294377D01*
X224510D01*
Y283377D01*
X237510D01*
Y294377D01*
X233010D01*
Y295641D01*
X233128Y295742D01*
X233229Y295860D01*
X237598D01*
X247001Y286457D01*
Y249171D01*
X244880D01*
Y239821D01*
X252960D01*
Y249171D01*
X251020D01*
Y287290D01*
X250981Y287682D01*
X250867Y288059D01*
X250681Y288406D01*
X250431Y288711D01*
X239851Y299291D01*
X239547Y299541D01*
X239199Y299727D01*
X238822Y299841D01*
X238430Y299880D01*
X233229D01*
X233128Y299998D01*
X232769Y300305D01*
X232366Y300551D01*
X231930Y300732D01*
X231471Y300842D01*
X231000Y300879D01*
D02*
G37*
G36*
X239010Y253869D02*
X238540Y253832D01*
X238080Y253722D01*
X237644Y253541D01*
X237241Y253294D01*
X236882Y252988D01*
X236576Y252628D01*
X236329Y252226D01*
X236148Y251790D01*
X236038Y251331D01*
X236001Y250860D01*
X236038Y250389D01*
X236148Y249930D01*
X236329Y249494D01*
X236502Y249210D01*
Y247974D01*
X236014D01*
Y238474D01*
X242014D01*
Y247974D01*
X241518D01*
Y249210D01*
X241691Y249494D01*
X241872Y249930D01*
X241982Y250389D01*
X242020Y250860D01*
X241982Y251331D01*
X241872Y251790D01*
X241691Y252226D01*
X241445Y252628D01*
X241138Y252988D01*
X240779Y253294D01*
X240376Y253541D01*
X239940Y253722D01*
X239481Y253832D01*
X239010Y253869D01*
D02*
G37*
G36*
X105144Y276300D02*
X93644D01*
Y265800D01*
X97384D01*
Y265551D01*
X97423Y265159D01*
X97537Y264782D01*
X97723Y264435D01*
X97973Y264130D01*
X99624Y262479D01*
X99929Y262229D01*
X100276Y262043D01*
X100653Y261929D01*
X101045Y261890D01*
X122900D01*
X123292Y261929D01*
X123513Y261996D01*
X123895Y261784D01*
X124006Y261656D01*
Y258978D01*
X125006Y257978D01*
X124006Y256978D01*
Y253978D01*
X125006Y252978D01*
X124006Y251978D01*
Y248978D01*
X125006Y247978D01*
X124006Y246978D01*
Y243978D01*
X125006Y242978D01*
X124006Y241978D01*
Y238978D01*
X124749Y238235D01*
X124542Y237735D01*
X123913D01*
X123705Y237913D01*
X123302Y238159D01*
X122866Y238340D01*
X122407Y238450D01*
X121936Y238487D01*
X119769D01*
Y240196D01*
X111689D01*
Y238487D01*
X70307D01*
Y242750D01*
X77060D01*
Y258450D01*
X58820D01*
Y242750D01*
X64289D01*
Y235478D01*
Y214087D01*
X62298D01*
X62004Y214058D01*
X61722Y213972D01*
X61461Y213833D01*
X61233Y213645D01*
X61045Y213417D01*
X60906Y213157D01*
X60820Y212874D01*
X60791Y212580D01*
Y208960D01*
X60820Y208666D01*
X60906Y208383D01*
X61045Y208122D01*
X61096Y208060D01*
X61233Y207526D01*
X61045Y207297D01*
X60906Y207036D01*
X60820Y206754D01*
X60791Y206460D01*
Y198610D01*
X60820Y198316D01*
X60906Y198033D01*
X61045Y197772D01*
X61233Y197544D01*
X61461Y197356D01*
X61722Y197217D01*
X62004Y197131D01*
X62298Y197103D01*
X64289D01*
Y195709D01*
X56481D01*
X50569Y201622D01*
Y209774D01*
X50532Y210244D01*
X50421Y210703D01*
X50241Y211140D01*
X49994Y211542D01*
X49687Y211901D01*
X40461Y221128D01*
X40102Y221434D01*
X39699Y221681D01*
X39263Y221862D01*
X38804Y221972D01*
X38333Y222009D01*
X38287D01*
X38241Y222066D01*
X38198Y222101D01*
X38160Y222141D01*
X38084Y222194D01*
X38012Y222253D01*
X37964Y222279D01*
X37918Y222311D01*
X37833Y222349D01*
X37752Y222393D01*
X37699Y222409D01*
X37648Y222431D01*
X37558Y222451D01*
X37469Y222478D01*
X37414Y222484D01*
X37360Y222496D01*
X37064Y222532D01*
X36739Y222630D01*
X36237Y222839D01*
X35638Y223139D01*
X30601Y226446D01*
X29302Y227408D01*
X29270Y227427D01*
X29242Y227450D01*
X29223Y227460D01*
X29028Y227609D01*
X28255Y228102D01*
X27442Y228525D01*
X26595Y228876D01*
X25720Y229152D01*
X24825Y229350D01*
X23916Y229470D01*
X23000Y229510D01*
X22084Y229470D01*
X21175Y229350D01*
X20280Y229152D01*
X19405Y228876D01*
X18558Y228525D01*
X17745Y228102D01*
X16972Y227609D01*
X16244Y227051D01*
X15568Y226432D01*
X14949Y225756D01*
X14391Y225028D01*
X13898Y224255D01*
X13475Y223442D01*
X13124Y222595D01*
X12848Y221720D01*
X12650Y220825D01*
X12530Y219916D01*
X12490Y219000D01*
X12530Y218084D01*
X12650Y217175D01*
X12848Y216280D01*
X13124Y215405D01*
X13475Y214558D01*
X13898Y213745D01*
X14391Y212972D01*
X14949Y212244D01*
X15568Y211568D01*
X16244Y210949D01*
X16972Y210391D01*
X17745Y209898D01*
X18558Y209475D01*
X19405Y209124D01*
X20280Y208848D01*
X21175Y208650D01*
X22084Y208530D01*
X23000Y208490D01*
X23916Y208530D01*
X24825Y208650D01*
X25720Y208848D01*
X26595Y209124D01*
X27442Y209475D01*
X28255Y209898D01*
X29028Y210391D01*
X29223Y210540D01*
X29242Y210550D01*
X29266Y210570D01*
X29293Y210586D01*
X31835Y212440D01*
X33935Y213855D01*
X35606Y214845D01*
X36237Y215161D01*
X36739Y215370D01*
X37064Y215468D01*
X37360Y215504D01*
X37414Y215516D01*
X37469Y215522D01*
X37535Y215542D01*
X44550Y208527D01*
Y200375D01*
X44587Y199904D01*
X44697Y199445D01*
X44878Y199009D01*
X45125Y198606D01*
X45432Y198247D01*
X53107Y190572D01*
X53466Y190266D01*
X53868Y190019D01*
X54305Y189838D01*
X54764Y189728D01*
X55234Y189691D01*
X93153D01*
X93972Y188872D01*
X94331Y188566D01*
X94734Y188319D01*
X95170Y188138D01*
X95629Y188028D01*
X96100Y187991D01*
X114014D01*
X114485Y188028D01*
X114944Y188138D01*
X115380Y188319D01*
X115783Y188566D01*
X116142Y188872D01*
X118550Y191280D01*
X119060D01*
Y189615D01*
X127140D01*
Y198965D01*
X125357D01*
Y202966D01*
X125329Y203319D01*
X125246Y203663D01*
X125111Y203991D01*
X124926Y204293D01*
X124696Y204562D01*
X124696Y204562D01*
X123923Y205335D01*
Y208354D01*
X124423Y208561D01*
X125506Y207478D01*
X131506D01*
X133006Y208978D01*
Y211978D01*
X132006Y212978D01*
X133006Y213978D01*
Y216978D01*
X132006Y217978D01*
X133006Y218978D01*
Y221978D01*
X132006Y222978D01*
X133006Y223978D01*
Y226978D01*
X131506Y228478D01*
X125506D01*
X124438Y227410D01*
X118429D01*
X118328Y227528D01*
X117969Y227834D01*
X117566Y228081D01*
X117130Y228262D01*
X116671Y228372D01*
X116200Y228409D01*
X115729Y228372D01*
X115270Y228262D01*
X114834Y228081D01*
X114431Y227834D01*
X114072Y227528D01*
X113765Y227169D01*
X113519Y226766D01*
X113338Y226330D01*
X113228Y225871D01*
X113191Y225400D01*
X113228Y224929D01*
X113338Y224470D01*
X113519Y224034D01*
X113765Y223631D01*
X114072Y223272D01*
X114431Y222966D01*
X114834Y222719D01*
X115113Y222603D01*
X115293Y222076D01*
X113582Y220365D01*
X108200D01*
Y218799D01*
X104940D01*
Y220465D01*
X96860D01*
Y218799D01*
X92490D01*
X92019Y218762D01*
X91560Y218652D01*
X91124Y218471D01*
X90721Y218224D01*
X90362Y217918D01*
X85092Y212648D01*
X84786Y212289D01*
X84539Y211887D01*
X84358Y211450D01*
X84248Y210991D01*
X84211Y210520D01*
Y195709D01*
X70307D01*
Y197103D01*
X72298D01*
X72592Y197131D01*
X72875Y197217D01*
X73136Y197356D01*
X73364Y197544D01*
X73552Y197772D01*
X73691Y198033D01*
X73777Y198316D01*
X73805Y198610D01*
Y206460D01*
X73777Y206754D01*
X73691Y207036D01*
X73552Y207297D01*
X73364Y207526D01*
X73347Y207877D01*
X73364Y207894D01*
X73552Y208122D01*
X73691Y208383D01*
X73777Y208666D01*
X73805Y208960D01*
Y212580D01*
X73777Y212874D01*
X73691Y213157D01*
X73552Y213417D01*
X73364Y213645D01*
X73136Y213833D01*
X72875Y213972D01*
X72592Y214058D01*
X72298Y214087D01*
X70307D01*
Y232469D01*
X111689D01*
Y230846D01*
X119769D01*
Y232469D01*
X121936D01*
X122407Y232506D01*
X122866Y232616D01*
X123302Y232797D01*
X123705Y233043D01*
X123913Y233221D01*
X124763D01*
X125506Y232478D01*
X131506D01*
X133006Y233978D01*
Y236978D01*
X132006Y237978D01*
X133006Y238978D01*
Y241978D01*
X132006Y242978D01*
X133006Y243978D01*
Y246978D01*
X132006Y247978D01*
X133006Y248978D01*
Y251978D01*
X132006Y252978D01*
X133006Y253978D01*
Y256978D01*
X132006Y257978D01*
X133006Y258978D01*
Y261978D01*
X132006Y262978D01*
X133006Y263978D01*
Y266978D01*
X131506Y268478D01*
X125506D01*
X124516Y267488D01*
X124478D01*
X124086Y267449D01*
X123709Y267335D01*
X123362Y267149D01*
X123057Y266899D01*
X122068Y265910D01*
X105144D01*
Y276300D01*
D02*
G37*
%LPD*%
G36*
X33526Y56781D02*
X32819Y56074D01*
X32700Y56098D01*
X30025Y56501D01*
X21733Y57690D01*
X31910Y67867D01*
X33526Y56781D01*
D02*
G37*
G36*
Y51019D02*
X33502Y50900D01*
X33099Y48225D01*
X31910Y39933D01*
X21733Y50110D01*
X32819Y51726D01*
X33526Y51019D01*
D02*
G37*
G36*
X271595Y34003D02*
X270262Y34991D01*
X265117Y38368D01*
X264392Y38732D01*
X263768Y38992D01*
X263246Y39148D01*
X262825Y39200D01*
Y43200D01*
X263246Y43252D01*
X263768Y43408D01*
X264392Y43668D01*
X265117Y44032D01*
X266871Y45071D01*
X269030Y46526D01*
X271595Y48397D01*
Y34003D01*
D02*
G37*
G36*
X251460Y193374D02*
X247840D01*
X242840Y198374D01*
X247840Y203374D01*
X251460D01*
Y193374D01*
D02*
G37*
G36*
X240340Y198374D02*
X245340Y193374D01*
X237490D01*
Y203374D01*
X245340D01*
X240340Y198374D01*
D02*
G37*
G36*
X267759Y255143D02*
X268148Y255017D01*
X268732Y254871D01*
X271651Y254318D01*
X278267Y253310D01*
X268090Y243133D01*
X266150Y253836D01*
X267564Y255250D01*
X267759Y255143D01*
D02*
G37*
G36*
X122135Y217357D02*
X122251Y216969D01*
X120070Y214788D01*
X119840Y214519D01*
X119655Y214217D01*
X119520Y213889D01*
X119437Y213545D01*
X119409Y213192D01*
Y204400D01*
X119437Y204047D01*
X119520Y203703D01*
X119655Y203375D01*
X119840Y203073D01*
X120070Y202804D01*
X120843Y202031D01*
Y198965D01*
X119060D01*
Y197299D01*
X117304D01*
X116833Y197262D01*
X116374Y197152D01*
X115938Y196971D01*
X115535Y196724D01*
X115176Y196418D01*
X112767Y194009D01*
X97346D01*
X96528Y194828D01*
X96169Y195135D01*
X95766Y195381D01*
X95330Y195562D01*
X94871Y195672D01*
X94400Y195709D01*
X90230D01*
Y209274D01*
X93736Y212780D01*
X96860D01*
Y211115D01*
X104940D01*
Y212780D01*
X108200D01*
Y211015D01*
X116280D01*
Y214551D01*
X119198Y217469D01*
X122049D01*
X122135Y217357D01*
D02*
G37*
G36*
X29738Y225209D02*
X34883Y221831D01*
X35608Y221468D01*
X36232Y221208D01*
X36754Y221052D01*
X37175Y221000D01*
Y217000D01*
X36754Y216948D01*
X36232Y216792D01*
X35608Y216532D01*
X34883Y216168D01*
X33129Y215129D01*
X30970Y213674D01*
X28405Y211803D01*
Y226197D01*
X29738Y225209D01*
D02*
G37*
G36*
X72298Y198610D02*
X62298D01*
Y206460D01*
X67298Y201460D01*
X72298Y206460D01*
Y198610D01*
D02*
G37*
G36*
Y208960D02*
X67298Y203960D01*
X62298Y208960D01*
Y212580D01*
X72298D01*
Y208960D01*
D02*
G37*
D10*
X112240Y203710D02*
D03*
Y215690D02*
D03*
X229870Y182224D02*
D03*
Y194204D02*
D03*
X248920Y232516D02*
D03*
Y244496D02*
D03*
X115729Y235520D02*
D03*
Y247500D02*
D03*
X123100Y194290D02*
D03*
Y182310D02*
D03*
X174700Y290010D02*
D03*
Y301990D02*
D03*
X228092Y232262D02*
D03*
Y244242D02*
D03*
X136600Y298690D02*
D03*
Y286710D02*
D03*
X126500Y298790D02*
D03*
Y286810D02*
D03*
X100900Y215790D02*
D03*
Y203810D02*
D03*
D11*
X238760Y198374D02*
D03*
X248840D02*
D03*
X67298Y209960D02*
D03*
Y199880D02*
D03*
D12*
X140006Y203882D02*
D03*
X135006D02*
D03*
X145006D02*
D03*
X150006D02*
D03*
X155006D02*
D03*
X160006D02*
D03*
X165006D02*
D03*
X170006D02*
D03*
X180006D02*
D03*
X185006D02*
D03*
X190006D02*
D03*
X135006Y271858D02*
D03*
X140006D02*
D03*
X145006D02*
D03*
X150006D02*
D03*
X155006D02*
D03*
X160006D02*
D03*
X165006D02*
D03*
X170006D02*
D03*
X175006D02*
D03*
X180006D02*
D03*
X185006D02*
D03*
X190006D02*
D03*
X175006Y203882D02*
D03*
D13*
X162490Y237870D02*
D03*
D14*
X196474Y265478D02*
D03*
Y260478D02*
D03*
Y255478D02*
D03*
Y250478D02*
D03*
Y245478D02*
D03*
Y240478D02*
D03*
Y235478D02*
D03*
Y230478D02*
D03*
Y225478D02*
D03*
Y220478D02*
D03*
Y215478D02*
D03*
Y210407D02*
D03*
X128506Y265478D02*
D03*
Y260478D02*
D03*
Y255478D02*
D03*
Y250478D02*
D03*
Y245478D02*
D03*
Y240478D02*
D03*
Y235478D02*
D03*
Y230478D02*
D03*
Y225478D02*
D03*
Y220478D02*
D03*
Y215478D02*
D03*
Y210478D02*
D03*
D15*
X192500Y373380D02*
D03*
X107500D02*
D03*
D16*
X150000Y384810D02*
D03*
D17*
X190910Y186600D02*
D03*
X202890D02*
D03*
X231021Y259860D02*
D03*
X243000D02*
D03*
X161946Y182118D02*
D03*
X149966D02*
D03*
X229362Y221234D02*
D03*
X241341D02*
D03*
X229321Y210312D02*
D03*
X241300D02*
D03*
X216450Y196850D02*
D03*
X204470D02*
D03*
D18*
X90800Y250600D02*
D03*
X67940D02*
D03*
D19*
X231010Y270843D02*
D03*
Y288877D02*
D03*
D20*
X99394Y271050D02*
D03*
X112894D02*
D03*
Y281550D02*
D03*
X99394D02*
D03*
D21*
X214630Y224804D02*
D03*
Y209804D02*
D03*
D22*
X239014Y229724D02*
D03*
Y243224D02*
D03*
D23*
X155080Y292700D02*
D03*
Y286830D02*
D03*
Y298570D02*
D03*
X150080Y292700D02*
D03*
Y286830D02*
D03*
Y298570D02*
D03*
D24*
X229010Y243849D02*
Y251860D01*
X202890Y186800D02*
X210200D01*
X249010Y243849D02*
Y287290D01*
X165800Y281900D02*
X175900Y292000D01*
X191008Y180086D02*
Y187411D01*
X150020Y271870D02*
Y286930D01*
X126500Y282124D02*
Y286810D01*
X136600Y279500D02*
Y286710D01*
X126378Y276200D02*
X132700D01*
X121028Y281550D02*
X126378Y276200D01*
X112894Y281550D02*
X121028D01*
X140006Y271858D02*
Y276094D01*
X136600Y279500D02*
X140006Y276094D01*
X129124Y279500D02*
X136600D01*
X126500Y282124D02*
X129124Y279500D01*
X135006Y271858D02*
Y273894D01*
X132700Y276200D02*
X135006Y273894D01*
X101045Y263900D02*
X122900D01*
X99394Y265551D02*
Y271050D01*
Y265551D02*
X101045Y263900D01*
X99394Y281550D02*
Y288594D01*
X99400Y288600D01*
X113244Y270700D02*
X120900D01*
X112894Y271050D02*
X113244Y270700D01*
X288300Y263600D02*
Y300230D01*
X281494Y256794D02*
X288300Y263600D01*
X277368Y256794D02*
X281494D01*
X280660Y307870D02*
X288300Y300230D01*
X254000Y267400D02*
X277000Y244400D01*
X150021Y271870D02*
Y275800D01*
X150010Y271860D02*
X150021Y271870D01*
X238250Y231870D02*
X239010Y231110D01*
X239771Y231870D01*
X231021Y259860D02*
Y270832D01*
X231010Y270843D02*
X231021Y270832D01*
X243000Y259860D02*
Y267850D01*
X254000Y267400D02*
Y295849D01*
X254010Y295860D01*
X231000Y288887D02*
Y297870D01*
Y288887D02*
X231010Y288877D01*
X245000Y317870D02*
X255000Y307870D01*
X120550Y230478D02*
X128506D01*
X145006Y189456D02*
Y203882D01*
X165006Y196088D02*
Y203882D01*
X196474Y215478D02*
X207980D01*
X196474Y265478D02*
X200200D01*
X196474Y225478D02*
X204724D01*
X196474Y220478D02*
X210304D01*
X214630Y224804D01*
Y209804D02*
X215646Y208788D01*
X215138Y210312D02*
X229321D01*
X214630Y209804D02*
X215138Y210312D01*
X218200Y221234D02*
X229362D01*
X214630Y224804D02*
X218200Y221234D01*
X241341D02*
X249936D01*
X241300Y210312D02*
X249428D01*
X204470Y196850D02*
Y208026D01*
X202089Y210407D02*
X204470Y208026D01*
X196474Y210407D02*
X202089D01*
X197358Y196850D02*
X204470D01*
X216450D02*
X223012D01*
X190006Y188413D02*
Y203882D01*
X229870Y194204D02*
Y201930D01*
X237236Y198374D02*
X238760D01*
X233680Y201930D02*
X237236Y198374D01*
X229870Y201930D02*
X233680D01*
X248840Y188802D02*
Y198374D01*
X209042Y303784D02*
X246086D01*
X254010Y295860D01*
X197496Y317870D02*
X245000D01*
X255000Y307870D02*
X280660D01*
X190006Y271858D02*
Y276874D01*
X196474Y255478D02*
X201500D01*
X220726Y265430D02*
X223266Y262890D01*
X196474Y250478D02*
X216696D01*
X223266Y257048D01*
Y262890D01*
X196474Y260478D02*
X218948D01*
X196474Y240478D02*
X201870D01*
X203887Y238252D02*
X208280D01*
X202315Y236680D02*
X203887Y238252D01*
X201254Y233680D02*
X205740D01*
X196474Y230478D02*
X198052D01*
X201254Y233680D01*
X196474Y235478D02*
X197676Y236680D01*
X202315D01*
X122900Y263900D02*
X124478Y265478D01*
X128506D01*
X123100Y194290D02*
Y194310D01*
X190006Y188413D02*
X191008Y187411D01*
X185006Y179294D02*
Y203882D01*
Y179294D02*
X189548Y174752D01*
X203200D01*
X180006Y178094D02*
Y203882D01*
Y178094D02*
X187920Y170180D01*
X23010Y215760D02*
X23140Y215630D01*
X190006Y276874D02*
X196596Y283464D01*
X185006Y271858D02*
Y278036D01*
X196596Y283464D02*
Y288544D01*
X128428Y225400D02*
X128506Y225478D01*
X116200Y225400D02*
X128428D01*
X155006Y203882D02*
X155100Y203788D01*
Y189500D02*
Y203788D01*
X196474Y245478D02*
X201257D01*
X202779Y247000D01*
X218161D01*
X231021Y259860D01*
X201870Y240478D02*
X204092Y242700D01*
X212214D01*
X223044Y231870D01*
X231000Y297870D02*
X238430D01*
X249010Y287290D01*
X200200Y265478D02*
X202426Y267704D01*
Y297168D01*
X209042Y303784D01*
X170000Y271864D02*
X170006Y271858D01*
X170000Y276964D02*
X170058Y276906D01*
X170000Y271864D02*
Y276964D01*
X180000Y271864D02*
X180006Y271858D01*
X180000Y271864D02*
Y277800D01*
X170000Y276964D02*
X170336Y277300D01*
X170536Y277100D01*
X170736Y277300D01*
X160006Y271858D02*
Y275906D01*
X162900Y278800D01*
X167100D01*
X155006Y271858D02*
Y275406D01*
X161500Y281900D01*
X165800D01*
X170736Y277300D02*
X171300D01*
X175900Y292000D02*
X181500D01*
X180224Y283900D02*
X181100D01*
X175006Y271858D02*
Y275406D01*
X175800Y279476D02*
X180224Y283900D01*
X175006Y275406D02*
X175800Y276200D01*
Y279476D01*
X167100Y278800D02*
X170700Y282400D01*
X172900D01*
X187920Y170180D02*
X187940Y170200D01*
X195200D01*
X223044Y231870D02*
X238250D01*
X239771D02*
X249010D01*
X207980Y215478D02*
X214630Y208828D01*
D25*
X150183Y384812D02*
X150200Y383300D01*
X150154Y387472D02*
X150183Y384812D01*
X150000Y384810D02*
Y387470D01*
X150110Y301300D02*
Y384700D01*
D26*
X34600Y52800D02*
X93758D01*
X23000Y41200D02*
X34600Y52800D01*
X92930Y54800D02*
X136500Y98370D01*
X34800Y54800D02*
X92930D01*
X23000Y66600D02*
X34800Y54800D01*
X93758Y52800D02*
X138500Y97542D01*
Y198676D01*
X140006Y200182D01*
X136500Y98370D02*
Y198688D01*
X135006Y200182D02*
X136500Y198688D01*
X140006Y200182D02*
Y203882D01*
X135006Y200182D02*
Y203882D01*
D27*
X198900Y41200D02*
X277000D01*
X149966Y90134D02*
X198900Y41200D01*
X149966Y90134D02*
Y182118D01*
X117951Y220478D02*
X128506D01*
X159512Y193548D02*
Y196850D01*
X100900Y215790D02*
X112140D01*
X112240Y215690D01*
X87220Y192700D02*
Y210520D01*
X92490Y215790D01*
X100900D01*
X96100Y191000D02*
X114014D01*
X117304Y194290D01*
X123100D01*
X112240Y215690D02*
X113163D01*
X117951Y220478D01*
X175100Y176200D02*
Y186600D01*
Y176200D02*
X186454Y164846D01*
X191008D01*
X94400Y192700D02*
X96100Y191000D01*
X67400Y192700D02*
X87220D01*
X94400D01*
X55234D02*
X67400D01*
X47559Y200375D02*
X55234Y192700D01*
X23000Y219000D02*
X38333D01*
X47559Y209774D01*
Y200375D02*
Y209774D01*
X67298Y192802D02*
Y199880D01*
Y192802D02*
X67400Y192700D01*
X159512Y193548D02*
X162460Y190600D01*
X171100D01*
X175100Y186600D01*
X150010Y182118D02*
Y198100D01*
X67298Y209960D02*
Y235478D01*
Y249958D01*
X67940Y250600D01*
X67298Y235478D02*
X121936D01*
D28*
X239010Y244610D02*
Y250860D01*
X150006Y198104D02*
Y203882D01*
Y198104D02*
X150010Y198100D01*
D29*
X121666Y213192D02*
X123952Y215478D01*
X128506D01*
X121666Y204400D02*
X123100Y202966D01*
Y194310D02*
Y202966D01*
X121666Y204400D02*
Y213192D01*
X121936Y235478D02*
X128506D01*
X90800Y250600D02*
X91400Y250000D01*
X90800Y250600D02*
X106100D01*
D30*
X120000Y-234765D02*
Y-250000D01*
X130157D01*
X135235D02*
Y-239843D01*
X140313Y-234765D01*
X145392Y-239843D01*
Y-250000D01*
Y-242383D01*
X135235D01*
X150470Y-234765D02*
Y-237304D01*
X155548Y-242383D01*
X160627Y-237304D01*
Y-234765D01*
X155548Y-242383D02*
Y-250000D01*
X175862Y-234765D02*
X165705D01*
Y-250000D01*
X175862D01*
X165705Y-242383D02*
X170784D01*
X180940Y-250000D02*
Y-234765D01*
X188558D01*
X191097Y-237304D01*
Y-242383D01*
X188558Y-244922D01*
X180940D01*
X186019D02*
X191097Y-250000D01*
X211410Y-234765D02*
X221567D01*
X216489D01*
Y-250000D01*
X234263Y-234765D02*
X229185D01*
X226646Y-237304D01*
Y-247461D01*
X229185Y-250000D01*
X234263D01*
X236802Y-247461D01*
Y-237304D01*
X234263Y-234765D01*
X241881Y-250000D02*
Y-234765D01*
X249498D01*
X252037Y-237304D01*
Y-242383D01*
X249498Y-244922D01*
X241881D01*
X0Y-174765D02*
Y-190000D01*
X7617D01*
X10157Y-187461D01*
Y-184922D01*
X7617Y-182383D01*
X0D01*
X7617D01*
X10157Y-179843D01*
Y-177304D01*
X7617Y-174765D01*
X0D01*
X22853D02*
X17774D01*
X15235Y-177304D01*
Y-187461D01*
X17774Y-190000D01*
X22853D01*
X25392Y-187461D01*
Y-177304D01*
X22853Y-174765D01*
X30470Y-190000D02*
Y-179843D01*
X35549Y-174765D01*
X40627Y-179843D01*
Y-190000D01*
Y-182383D01*
X30470D01*
X45705Y-190000D02*
Y-174765D01*
X53323D01*
X55862Y-177304D01*
Y-182383D01*
X53323Y-184922D01*
X45705D01*
X50784D02*
X55862Y-190000D01*
X60940Y-174765D02*
Y-190000D01*
X68558D01*
X71097Y-187461D01*
Y-177304D01*
X68558Y-174765D01*
X60940D01*
X91410Y-179843D02*
X93950D01*
Y-182383D01*
X91410D01*
Y-179843D01*
Y-187461D02*
X93950D01*
Y-190000D01*
X91410D01*
Y-187461D01*
X129498Y-177304D02*
X126959Y-174765D01*
X121881D01*
X119341Y-177304D01*
Y-179843D01*
X121881Y-182383D01*
X126959D01*
X129498Y-184922D01*
Y-187461D01*
X126959Y-190000D01*
X121881D01*
X119341Y-187461D01*
X134577Y-174765D02*
X144733D01*
X139655D01*
Y-190000D01*
X149811D02*
Y-174765D01*
X154890Y-179843D01*
X159968Y-174765D01*
Y-190000D01*
X165047Y-177304D02*
X167586Y-174765D01*
X172664D01*
X175203Y-177304D01*
Y-179843D01*
X172664Y-182383D01*
X170125D01*
X172664D01*
X175203Y-184922D01*
Y-187461D01*
X172664Y-190000D01*
X167586D01*
X165047Y-187461D01*
X190438Y-190000D02*
X180282D01*
X190438Y-179843D01*
Y-177304D01*
X187899Y-174765D01*
X182821D01*
X180282Y-177304D01*
X195517Y-174765D02*
Y-190000D01*
X200595Y-184922D01*
X205674Y-190000D01*
Y-174765D01*
X210752D02*
Y-190000D01*
X218369D01*
X220909Y-187461D01*
Y-184922D01*
X218369Y-182383D01*
X210752D01*
X218369D01*
X220909Y-179843D01*
Y-177304D01*
X218369Y-174765D01*
X210752D01*
X236144D02*
X225987D01*
Y-182383D01*
X231065Y-179843D01*
X233604D01*
X236144Y-182383D01*
Y-187461D01*
X233604Y-190000D01*
X228526D01*
X225987Y-187461D01*
X251379Y-174765D02*
X241222D01*
Y-182383D01*
X246300Y-179843D01*
X248839D01*
X251379Y-182383D01*
Y-187461D01*
X248839Y-190000D01*
X243761D01*
X241222Y-187461D01*
X256457Y-192539D02*
X266614D01*
X271692Y-174765D02*
Y-190000D01*
X279310D01*
X281849Y-187461D01*
Y-177304D01*
X279310Y-174765D01*
X271692D01*
X286927D02*
Y-190000D01*
X294545D01*
X297084Y-187461D01*
Y-184922D01*
X294545Y-182383D01*
X286927D01*
X294545D01*
X297084Y-179843D01*
Y-177304D01*
X294545Y-174765D01*
X286927D01*
X302162Y-192539D02*
X312319D01*
X327554Y-187461D02*
Y-177304D01*
X325015Y-174765D01*
X319937D01*
X317397Y-177304D01*
Y-187461D01*
X319937Y-190000D01*
X325015D01*
X322476Y-184922D02*
X327554Y-190000D01*
X325015D02*
X327554Y-187461D01*
X342789Y-174765D02*
X332632D01*
Y-182383D01*
X337711D01*
X332632D01*
Y-190000D01*
X347868D02*
Y-174765D01*
X358024Y-190000D01*
Y-174765D01*
X370720Y-190000D02*
Y-174765D01*
X363103Y-182383D01*
X373259D01*
X378338Y-177304D02*
X380877Y-174765D01*
X385955D01*
X388494Y-177304D01*
Y-179843D01*
X385955Y-182383D01*
X388494Y-184922D01*
Y-187461D01*
X385955Y-190000D01*
X380877D01*
X378338Y-187461D01*
Y-184922D01*
X380877Y-182383D01*
X378338Y-179843D01*
Y-177304D01*
X380877Y-182383D02*
X385955D01*
X393573Y-192539D02*
X403729D01*
X408808Y-190000D02*
Y-174765D01*
X416425D01*
X418965Y-177304D01*
Y-182383D01*
X416425Y-184922D01*
X408808D01*
X0Y-220000D02*
Y-204765D01*
X7617D01*
X10157Y-207304D01*
Y-212383D01*
X7617Y-214922D01*
X0D01*
X5078D02*
X10157Y-220000D01*
X25392Y-204765D02*
X15235D01*
Y-220000D01*
X25392D01*
X15235Y-212383D02*
X20313D01*
X30470Y-204765D02*
Y-214922D01*
X35549Y-220000D01*
X40627Y-214922D01*
Y-204765D01*
X91410Y-209843D02*
X93950D01*
Y-212383D01*
X91410D01*
Y-209843D01*
Y-217461D02*
X93950D01*
Y-220000D01*
X91410D01*
Y-217461D01*
X119341Y-220000D02*
Y-209843D01*
X124420Y-204765D01*
X129498Y-209843D01*
Y-220000D01*
Y-212383D01*
X119341D01*
X10157Y-234765D02*
X0D01*
Y-242383D01*
X5078D01*
X0D01*
Y-250000D01*
X15235Y-234765D02*
X20313D01*
X17774D01*
Y-250000D01*
X15235D01*
X20313D01*
X27931Y-234765D02*
Y-250000D01*
X38088D01*
X43166D02*
Y-234765D01*
X48244Y-239843D01*
X53323Y-234765D01*
Y-250000D01*
X88871Y-239843D02*
X91410D01*
Y-242383D01*
X88871D01*
Y-239843D01*
Y-247461D02*
X91410D01*
Y-250000D01*
X88871D01*
Y-247461D01*
X0Y-264765D02*
Y-280000D01*
X7617D01*
X10157Y-277461D01*
Y-267304D01*
X7617Y-264765D01*
X0D01*
X15235Y-280000D02*
Y-264765D01*
X22853D01*
X25392Y-267304D01*
Y-272383D01*
X22853Y-274922D01*
X15235D01*
X20313D02*
X25392Y-280000D01*
X30470D02*
Y-269843D01*
X35549Y-264765D01*
X40627Y-269843D01*
Y-280000D01*
Y-272383D01*
X30470D01*
X45705Y-264765D02*
Y-280000D01*
X50784Y-274922D01*
X55862Y-280000D01*
Y-264765D01*
X60940Y-280000D02*
Y-264765D01*
X71097Y-280000D01*
Y-264765D01*
X91410Y-269843D02*
X93950D01*
Y-272383D01*
X91410D01*
Y-269843D01*
Y-277461D02*
X93950D01*
Y-280000D01*
X91410D01*
Y-277461D01*
X129498Y-267304D02*
X126959Y-264765D01*
X121881D01*
X119341Y-267304D01*
Y-277461D01*
X121881Y-280000D01*
X126959D01*
X129498Y-277461D01*
X144733Y-264765D02*
X134577D01*
Y-280000D01*
X144733D01*
X134577Y-272383D02*
X139655D01*
X149811Y-280000D02*
Y-264765D01*
X159968Y-280000D01*
Y-264765D01*
X165047D02*
X175203D01*
X170125D01*
Y-280000D01*
X180282Y-264765D02*
Y-277461D01*
X182821Y-280000D01*
X187899D01*
X190438Y-277461D01*
Y-264765D01*
X195517Y-280000D02*
Y-264765D01*
X200595Y-269843D01*
X205674Y-264765D01*
Y-280000D01*
X210752Y-272383D02*
X220909D01*
X225987Y-280000D02*
Y-269843D01*
X231065Y-264765D01*
X236144Y-269843D01*
Y-280000D01*
Y-272383D01*
X225987D01*
X241222Y-264765D02*
Y-280000D01*
X248839D01*
X251379Y-277461D01*
Y-267304D01*
X248839Y-264765D01*
X241222D01*
X266614D02*
X256457D01*
Y-280000D01*
X266614D01*
X256457Y-272383D02*
X261535D01*
X271692Y-280000D02*
Y-264765D01*
X281849Y-280000D01*
Y-264765D01*
X297084D02*
X286927D01*
Y-280000D01*
X297084D01*
X286927Y-272383D02*
X292006D01*
X309780Y-264765D02*
X304701D01*
X302162Y-267304D01*
Y-277461D01*
X304701Y-280000D01*
X309780D01*
X312319Y-277461D01*
Y-267304D01*
X309780Y-264765D01*
X0Y-294765D02*
Y-310000D01*
X7617D01*
X10157Y-307461D01*
Y-297304D01*
X7617Y-294765D01*
X0D01*
X15235Y-310000D02*
Y-299843D01*
X20313Y-294765D01*
X25392Y-299843D01*
Y-310000D01*
Y-302383D01*
X15235D01*
X30470Y-294765D02*
X40627D01*
X35549D01*
Y-310000D01*
X55862Y-294765D02*
X45705D01*
Y-310000D01*
X55862D01*
X45705Y-302383D02*
X50784D01*
X91410Y-299843D02*
X93950D01*
Y-302383D01*
X91410D01*
Y-299843D01*
Y-307461D02*
X93950D01*
Y-310000D01*
X91410D01*
Y-307461D01*
X129498Y-310000D02*
X119341D01*
X129498Y-299843D01*
Y-297304D01*
X126959Y-294765D01*
X121881D01*
X119341Y-297304D01*
X134577D02*
X137116Y-294765D01*
X142194D01*
X144733Y-297304D01*
Y-307461D01*
X142194Y-310000D01*
X137116D01*
X134577Y-307461D01*
Y-297304D01*
X149811Y-310000D02*
X154890D01*
X152351D01*
Y-294765D01*
X149811Y-297304D01*
X162507Y-294765D02*
X172664D01*
Y-297304D01*
X162507Y-307461D01*
Y-310000D01*
X177743D02*
X187899Y-299843D01*
X200595Y-310000D02*
Y-294765D01*
X192978Y-302383D01*
X203134D01*
X218369Y-294765D02*
X208213D01*
Y-302383D01*
X213291Y-299843D01*
X215830D01*
X218369Y-302383D01*
Y-307461D01*
X215830Y-310000D01*
X210752D01*
X208213Y-307461D01*
D31*
X46482Y21081D02*
Y16002D01*
X49384D01*
X49941Y20113D02*
X50424Y20355D01*
X51150Y21081D01*
Y16002D01*
D32*
X277000Y244400D02*
D03*
Y320600D02*
D03*
Y295200D02*
D03*
Y269800D02*
D03*
Y219000D02*
D03*
Y193600D02*
D03*
Y168200D02*
D03*
Y142800D02*
D03*
Y117400D02*
D03*
Y92000D02*
D03*
Y66600D02*
D03*
Y41200D02*
D03*
X23000Y244400D02*
D03*
Y320600D02*
D03*
Y295200D02*
D03*
Y269800D02*
D03*
Y219000D02*
D03*
Y193600D02*
D03*
Y168200D02*
D03*
Y142800D02*
D03*
Y117400D02*
D03*
Y92000D02*
D03*
Y66600D02*
D03*
Y41200D02*
D03*
D33*
X277000Y346000D02*
D03*
X23000D02*
D03*
D34*
X126500Y306100D02*
D03*
X136700D02*
D03*
X136600Y279500D02*
D03*
X99400Y288600D02*
D03*
X120900Y270700D02*
D03*
X156500Y329500D02*
D03*
X248660Y353000D02*
D03*
X225800D02*
D03*
X272796Y377200D02*
D03*
X249936D02*
D03*
X227076D02*
D03*
X144400Y292300D02*
D03*
X134523Y355000D02*
D03*
X165500D02*
D03*
X157100Y377400D02*
D03*
X142529Y377500D02*
D03*
X142772Y322300D02*
D03*
X156480Y314700D02*
D03*
X143100Y343752D02*
D03*
X143800Y367500D02*
D03*
X157371Y344700D02*
D03*
X156000Y367500D02*
D03*
Y357400D02*
D03*
X10500Y88200D02*
D03*
X36600Y378300D02*
D03*
X144700Y280600D02*
D03*
X231902Y385812D02*
D03*
X261620Y283210D02*
D03*
X226060Y280670D02*
D03*
X213400Y292700D02*
D03*
X220980Y311150D02*
D03*
X241300Y283210D02*
D03*
X246380Y295910D02*
D03*
X256540Y300990D02*
D03*
X259080Y331470D02*
D03*
X238500Y331200D02*
D03*
X218440Y323850D02*
D03*
X241300Y308610D02*
D03*
X200660D02*
D03*
X179900Y297500D02*
D03*
X206781Y282695D02*
D03*
X256540Y240030D02*
D03*
X220980D02*
D03*
X256540Y224790D02*
D03*
X251460Y151130D02*
D03*
X249936Y125700D02*
D03*
X220980Y140970D02*
D03*
X190500Y146050D02*
D03*
X172720Y120650D02*
D03*
X198120Y118110D02*
D03*
X182880Y97790D02*
D03*
X246380Y100330D02*
D03*
X224282Y107188D02*
D03*
X254000Y46990D02*
D03*
X228600D02*
D03*
X203200D02*
D03*
X172720Y74930D02*
D03*
X129600Y104100D02*
D03*
X144780Y64770D02*
D03*
X182880Y49530D02*
D03*
X160020D02*
D03*
X142240D02*
D03*
X119380D02*
D03*
X50800Y92710D02*
D03*
X81280D02*
D03*
X66040Y82550D02*
D03*
Y107950D02*
D03*
X284480Y53340D02*
D03*
X261620Y29210D02*
D03*
X238760D02*
D03*
X215900D02*
D03*
X149860D02*
D03*
X170180D02*
D03*
X195580D02*
D03*
X129540D02*
D03*
X109220D02*
D03*
X40640D02*
D03*
X63500D02*
D03*
X86360D02*
D03*
X274828Y21336D02*
D03*
X271780Y5080D02*
D03*
X248920D02*
D03*
X226060D02*
D03*
X203200D02*
D03*
X139700D02*
D03*
X160020D02*
D03*
X182880D02*
D03*
X119380D02*
D03*
X96520D02*
D03*
X27940D02*
D03*
X50800D02*
D03*
X73660D02*
D03*
X294640Y378460D02*
D03*
Y266700D02*
D03*
Y304800D02*
D03*
Y342900D02*
D03*
Y147320D02*
D03*
Y185420D02*
D03*
Y223520D02*
D03*
Y33020D02*
D03*
Y71120D02*
D03*
Y109220D02*
D03*
X15240Y15240D02*
D03*
Y129540D02*
D03*
X5080Y109220D02*
D03*
Y71120D02*
D03*
Y33020D02*
D03*
X15240Y53340D02*
D03*
X15300Y233700D02*
D03*
X5080Y223520D02*
D03*
Y185420D02*
D03*
X15240Y205740D02*
D03*
X5080Y147320D02*
D03*
X14900Y158200D02*
D03*
X15240Y363220D02*
D03*
X5080Y342900D02*
D03*
Y304800D02*
D03*
X12700Y331300D02*
D03*
X5080Y266700D02*
D03*
X15200Y284500D02*
D03*
X49000Y121405D02*
D03*
X75300Y121800D02*
D03*
X62700Y136500D02*
D03*
X48600Y149800D02*
D03*
X75400Y149400D02*
D03*
X144780Y107950D02*
D03*
X155477Y146000D02*
D03*
X162560Y133350D02*
D03*
X172720Y151130D02*
D03*
X177800Y163830D02*
D03*
X101100Y176200D02*
D03*
X59400Y177400D02*
D03*
X48232Y191046D02*
D03*
X32400Y209214D02*
D03*
X76800Y176300D02*
D03*
X68044Y186600D02*
D03*
X80998Y224034D02*
D03*
X57400Y214100D02*
D03*
X36344Y241700D02*
D03*
X53340Y255270D02*
D03*
X49000Y284100D02*
D03*
X75800Y313400D02*
D03*
X47800Y305600D02*
D03*
X47300Y326400D02*
D03*
X75400Y290979D02*
D03*
X99060Y316230D02*
D03*
X47600Y356300D02*
D03*
X83400Y339000D02*
D03*
X5080Y378460D02*
D03*
X50800D02*
D03*
X85090Y368046D02*
D03*
X73660Y395960D02*
D03*
X50800D02*
D03*
X27940D02*
D03*
X5080D02*
D03*
X96520D02*
D03*
X294640D02*
D03*
X170800Y376300D02*
D03*
X170781Y396000D02*
D03*
X182880Y334010D02*
D03*
X116840D02*
D03*
Y318770D02*
D03*
X134400Y335400D02*
D03*
X129000Y375600D02*
D03*
X129678Y395900D02*
D03*
X116840Y395960D02*
D03*
X182880D02*
D03*
X156540Y303910D02*
D03*
X170100Y321800D02*
D03*
X157100Y387000D02*
D03*
Y396000D02*
D03*
X143100Y329702D02*
D03*
X143300Y314800D02*
D03*
X144400Y304700D02*
D03*
X142529Y386900D02*
D03*
X143900Y357400D02*
D03*
X142600Y395960D02*
D03*
X44196Y47244D02*
D03*
X102362Y53340D02*
D03*
X129794Y182880D02*
D03*
X123000Y175689D02*
D03*
X104300Y149556D02*
D03*
X131300Y149400D02*
D03*
X91500Y136700D02*
D03*
X128600Y124300D02*
D03*
X105664Y104648D02*
D03*
X117602Y93726D02*
D03*
X105918Y83312D02*
D03*
X115062Y66548D02*
D03*
X97790Y66040D02*
D03*
X90678Y47244D02*
D03*
X78232Y59690D02*
D03*
X64770Y47752D02*
D03*
X50546Y59690D02*
D03*
X174700Y309291D02*
D03*
X203200Y395960D02*
D03*
X226060D02*
D03*
X248920D02*
D03*
X271780D02*
D03*
X239010Y250860D02*
D03*
X229010Y251860D02*
D03*
X243000Y267850D02*
D03*
X229000Y154870D02*
D03*
X231000Y297870D02*
D03*
X165800Y335300D02*
D03*
X164400Y296000D02*
D03*
X145006Y189456D02*
D03*
X165006Y196088D02*
D03*
X159512Y196850D02*
D03*
X220726Y265430D02*
D03*
X204724Y225478D02*
D03*
X249936Y221234D02*
D03*
X249428Y210312D02*
D03*
X197358Y196850D02*
D03*
X223012D02*
D03*
X191008Y180086D02*
D03*
X203200Y174752D02*
D03*
X191008Y164846D02*
D03*
X229870Y201930D02*
D03*
X248840Y188802D02*
D03*
X79081Y206800D02*
D03*
X165354Y162814D02*
D03*
X200406Y166116D02*
D03*
X220980Y170000D02*
D03*
X256794Y172466D02*
D03*
X197104Y325882D02*
D03*
X197496Y317870D02*
D03*
X277368Y256794D02*
D03*
X201500Y255478D02*
D03*
X218948Y260478D02*
D03*
X208280Y238252D02*
D03*
X205740Y233680D02*
D03*
X210200Y186800D02*
D03*
X136000Y246600D02*
D03*
X153300D02*
D03*
Y228800D02*
D03*
X153400Y211500D02*
D03*
X136000D02*
D03*
Y228800D02*
D03*
X189000Y246600D02*
D03*
Y228800D02*
D03*
Y211500D02*
D03*
X188800Y264100D02*
D03*
X98000Y352000D02*
D03*
X98054Y366300D02*
D03*
X117602Y381400D02*
D03*
Y366300D02*
D03*
X117460Y352000D02*
D03*
X97977Y381400D02*
D03*
X108100Y345000D02*
D03*
X183000Y352000D02*
D03*
X183054Y366300D02*
D03*
X202602Y381400D02*
D03*
Y366300D02*
D03*
X202460Y352000D02*
D03*
X182977Y381400D02*
D03*
X193100Y345000D02*
D03*
X171300Y211500D02*
D03*
X185006Y278036D02*
D03*
X188700Y290600D02*
D03*
X196596Y288544D02*
D03*
X150000Y264100D02*
D03*
X114014Y191000D02*
D03*
X67400Y192700D02*
D03*
X116200Y225400D02*
D03*
X94968Y226700D02*
D03*
X56900Y200600D02*
D03*
X49500Y230200D02*
D03*
X86417Y186600D02*
D03*
X107500Y185100D02*
D03*
X38261Y264100D02*
D03*
X119520Y136500D02*
D03*
X104300Y122200D02*
D03*
X143200Y139900D02*
D03*
X202717Y75100D02*
D03*
X228117D02*
D03*
X253517D02*
D03*
X155100Y189500D02*
D03*
X180000Y277800D02*
D03*
X171400Y228900D02*
D03*
X171300Y246600D02*
D03*
X171400Y264000D02*
D03*
X172900Y282400D02*
D03*
X171300Y277300D02*
D03*
X181100Y283900D02*
D03*
X181500Y292000D02*
D03*
X195200Y170200D02*
D03*
X106100Y250600D02*
D03*
X106900Y207500D02*
D03*
M02*
